<svg width="60" height="60" viewBox="0 0 60 60" fill="none" xmlns="http://www.w3.org/2000/svg">
<path d="M10.2499 47.7302C6.85908 45.9839 5.52592 41.8195 7.27218 38.4287L11.0664 31.0612C12.8127 27.6704 16.9771 26.3372 20.3679 28.0835L27.7354 31.8777C31.1262 33.624 32.4594 37.7884 30.7131 41.1792L26.9189 48.5467C25.1726 51.9375 21.0082 53.2707 17.6174 51.5244L10.2499 47.7302Z" fill="#FAEAEA" stroke="black" stroke-width="2.76238"/>
<path d="M34.5924 37.448C34.5924 33.634 37.6843 30.5421 41.4983 30.5421H49.7854C53.5995 30.5421 56.6914 33.634 56.6914 37.448V45.7351C56.6914 49.5492 53.5995 52.6411 49.7854 52.6411H41.4983C37.6843 52.6411 34.5924 49.5492 34.5924 45.7351V37.448Z" fill="#FAEAEA" stroke="black" stroke-width="2.76238"/>
<path d="M22.3568 14.1292C22.0114 10.3309 24.8106 6.9717 28.609 6.62633L36.8621 5.87593C40.6605 5.53057 44.0196 8.32979 44.365 12.1282L45.1154 20.3813C45.4607 24.1796 42.6615 27.5388 38.8631 27.8842L30.6101 28.6346C26.8117 28.9799 23.4525 26.1807 23.1072 22.3823L22.3568 14.1292Z" fill="#70B0F2" stroke="black" stroke-width="2.76238"/>
<path d="M41.6265 48.7697L41.6267 48.7697L41.6287 48.7643L42.6506 46.0486H48.8153L49.8614 48.7638C49.9375 48.9767 50.089 49.1409 50.3065 49.2573C50.5169 49.3699 50.724 49.4291 50.9267 49.4291C51.2424 49.4291 51.5135 49.3514 51.7333 49.1896C51.9572 49.0248 52.0729 48.802 52.0729 48.529C52.0729 48.48 52.0636 48.4216 52.0479 48.3566C52.0471 48.2958 52.0397 48.2336 52.0135 48.1855L47.1585 35.8502L47.1585 35.8502L47.1572 35.8471C47.0209 35.5325 46.8576 35.2691 46.6659 35.0593C46.4576 34.8311 46.1434 34.7267 45.7451 34.7267C45.3613 34.7267 45.0504 34.8322 44.8273 35.0561L44.8272 35.0561L44.8243 35.0593C44.6316 35.2702 44.4762 35.535 44.3565 35.8508C44.3564 35.851 44.3563 35.8512 44.3562 35.8514L39.5019 48.185C39.4789 48.2255 39.4609 48.2818 39.4452 48.3448L39.4422 48.3567V48.369V48.3694V48.3698V48.3701V48.3705V48.3709V48.3713V48.3717V48.3721V48.3725V48.3729V48.3733V48.3736V48.374V48.3744V48.3748V48.3752V48.3756V48.376V48.3763V48.3767V48.3771V48.3775V48.3779V48.3783V48.3786V48.379V48.3794V48.3798V48.3802V48.3806V48.3809V48.3813V48.3817V48.3821V48.3825V48.3828V48.3832V48.3836V48.384V48.3844V48.3847V48.3851V48.3855V48.3859V48.3862V48.3866V48.387V48.3874V48.3878V48.3881V48.3885V48.3889V48.3893V48.3896V48.39V48.3904V48.3907V48.3911V48.3915V48.3919V48.3922V48.3926V48.393V48.3934V48.3937V48.3941V48.3945V48.3948V48.3952V48.3956V48.3959V48.3963V48.3967V48.397V48.3974V48.3978V48.3982V48.3985V48.3989V48.3993V48.3996V48.4V48.4004V48.4007V48.4011V48.4014V48.4018V48.4022V48.4025V48.4029V48.4033V48.4036V48.404V48.4044V48.4047V48.4051V48.4054V48.4058V48.4062V48.4065V48.4069V48.4072V48.4076V48.408V48.4083V48.4087V48.409V48.4094V48.4097V48.4101V48.4105V48.4108V48.4112V48.4115V48.4119V48.4122V48.4126V48.413V48.4133V48.4137V48.414V48.4144V48.4147V48.4151V48.4154V48.4158V48.4161V48.4165V48.4168V48.4172V48.4175V48.4179V48.4182V48.4186V48.4189V48.4193V48.4196V48.42V48.4203V48.4207V48.421V48.4214V48.4217V48.4221V48.4224V48.4228V48.4231V48.4235V48.4238V48.4241V48.4245V48.4248V48.4252V48.4255V48.4259V48.4262V48.4266V48.4269V48.4272V48.4276V48.4279V48.4283V48.4286V48.4289V48.4293V48.4296V48.43V48.4303V48.4306V48.431V48.4313V48.4317V48.432V48.4323V48.4327V48.433V48.4333V48.4337V48.434V48.4344V48.4347V48.435V48.4354V48.4357V48.436V48.4364V48.4367V48.437V48.4374V48.4377V48.438V48.4384V48.4387V48.439V48.4394V48.4397V48.44V48.4403V48.4407V48.441V48.4413V48.4417V48.442V48.4423V48.4427V48.443V48.4433V48.4436V48.444V48.4443V48.4446V48.4449V48.4453V48.4456V48.4459V48.4462V48.4466V48.4469V48.4472V48.4475V48.4479V48.4482V48.4485V48.4488V48.4492V48.4495V48.4498V48.4501V48.4504V48.4508V48.4511V48.4514V48.4517V48.452V48.4524V48.4527V48.453V48.4533V48.4536V48.4539V48.4543V48.4546V48.4549V48.4552V48.4555V48.4558V48.4562V48.4565V48.4568V48.4571V48.4574V48.4577V48.4581V48.4584V48.4587V48.459V48.4593V48.4596V48.4599V48.4602V48.4605V48.4609V48.4612V48.4615V48.4618V48.4621V48.4624V48.4627V48.463V48.4633V48.4636V48.464V48.4643V48.4646V48.4649V48.4652V48.4655V48.4658V48.4661V48.4664V48.4667V48.467V48.4673V48.4676V48.4679V48.4682V48.4685V48.4688V48.4691V48.4694V48.4697V48.47V48.4703V48.4706V48.4709V48.4712V48.4715V48.4718V48.4721V48.4724V48.4727V48.473V48.4733V48.4736V48.4739V48.4742V48.4745V48.4748V48.4751V48.4754V48.4757V48.476V48.4763V48.4766V48.4769V48.4772V48.4775V48.4778V48.4781V48.4784V48.4787V48.479V48.4792V48.4795V48.4798V48.4801V48.4804V48.4807V48.481V48.4813V48.4816V48.4819V48.4822V48.4824V48.4827V48.483V48.4833V48.4836V48.4839V48.4842V48.4845V48.4847V48.485V48.4853V48.4856V48.4859V48.4862V48.4865V48.4867V48.487V48.4873V48.4876V48.4879V48.4882V48.4884V48.4887V48.489V48.4893V48.4896V48.4898V48.4901V48.4904V48.4907V48.491V48.4912V48.4915V48.4918V48.4921V48.4924V48.4926V48.4929V48.4932V48.4935V48.4937V48.494V48.4943V48.4946V48.4949V48.4951V48.4954V48.4957V48.4959V48.4962V48.4965V48.4968V48.497V48.4973V48.4976V48.4979V48.4981V48.4984V48.4987V48.4989V48.4992V48.4995V48.4998V48.5V48.5003V48.5006V48.5008V48.5011V48.5014V48.5016V48.5019V48.5022V48.5024V48.5027V48.503V48.5032V48.5035V48.5038V48.504V48.5043V48.5046V48.5048V48.5051V48.5054V48.5056V48.5059V48.5061V48.5064V48.5067V48.5069V48.5072V48.5075V48.5077V48.508V48.5082V48.5085V48.5088V48.509V48.5093V48.5095V48.5098V48.51V48.5103V48.5106V48.5108V48.5111V48.5113V48.5116V48.5118V48.5121V48.5124V48.5126V48.5129V48.5131V48.5134V48.5136V48.5139V48.5141V48.5144V48.5146V48.5149V48.5151V48.5154V48.5156V48.5159V48.5161V48.5164V48.5167V48.5169V48.5171V48.5174V48.5176V48.5179V48.5181V48.5184V48.5186V48.5189V48.5191V48.5194V48.5196V48.5199V48.5201V48.5204V48.5206V48.5209V48.5211V48.5213V48.5216V48.5218V48.5221V48.5223V48.5226V48.5228V48.523V48.5233V48.5235V48.5238V48.524V48.5243V48.5245V48.5247V48.525V48.5252V48.5255V48.5257V48.5259V48.5262V48.5264V48.5266V48.5269V48.5271V48.5274V48.5276V48.5278V48.5281V48.5283V48.5285V48.5288V48.529C39.4422 48.802 39.5579 49.0248 39.7819 49.1896L39.7818 49.1897L39.785 49.1918C40.0188 49.3507 40.2879 49.4291 40.5885 49.4291C40.7915 49.4291 40.9914 49.3697 41.187 49.2555C41.3871 49.1386 41.5346 48.9762 41.6265 48.7697ZM43.324 44.2883L45.7451 37.8897L48.1662 44.2883H43.324Z" fill="black" stroke="black" stroke-width="0.2"/>
<path d="M34.9283 15.7818L34.9282 15.7818L34.9273 15.7821C34.5867 15.8985 34.2436 15.9676 33.8979 15.9897L31.4471 16.1463L31.1666 11.7559L33.9945 11.5752C34.4897 11.5436 34.9026 11.5786 35.236 11.6766L35.2359 11.6767L35.2395 11.6776C35.5746 11.7631 35.8431 11.8979 36.0492 12.0789L36.0491 12.079L36.0518 12.0812C36.2586 12.2507 36.4109 12.4553 36.5099 12.6958L36.5099 12.6958L36.5105 12.6974C36.6103 12.9288 36.6689 13.1766 36.6858 13.4413C36.7112 13.8388 36.6412 14.1916 36.4787 14.5029L36.4786 14.5029L36.4779 14.5043C36.3265 14.8056 36.1156 15.0645 35.844 15.2814L35.844 15.2814L35.8422 15.2829C35.585 15.4987 35.2809 15.6653 34.9283 15.7818ZM36.4821 18.3107L36.482 18.3107L36.4842 18.312C37.1311 18.6927 37.4829 19.2946 37.5365 20.134C37.5823 20.85 37.3578 21.445 36.8627 21.9274C36.3688 22.394 35.5827 22.6706 34.4851 22.7407L31.8791 22.9072L31.5629 17.9586L34.0802 17.7977C35.0405 17.7364 35.8389 17.9099 36.4821 18.3107ZM39.2747 21.6831L39.275 21.6822C39.4691 21.1446 39.5469 20.5793 39.5091 19.9872C39.4714 19.3976 39.3343 18.905 39.0921 18.5147C38.8682 18.1294 38.5794 17.818 38.2257 17.5821C37.8902 17.3476 37.5135 17.173 37.0964 17.0579C36.794 16.9605 36.4966 16.8748 36.204 16.8009C36.5136 16.6439 36.7997 16.4795 37.0623 16.3075C37.4123 16.0871 37.7087 15.8339 37.9505 15.5474C38.1931 15.26 38.3792 14.9334 38.509 14.5684C38.6401 14.1996 38.6899 13.7882 38.661 13.3359C38.6294 12.8411 38.5081 12.3726 38.297 11.9313C38.0843 11.4745 37.7763 11.0809 37.3743 10.7512C36.9848 10.4055 36.5036 10.1459 35.9331 9.97083C35.3719 9.7795 34.7233 9.70893 33.9896 9.75581L30.2413 9.99528C29.9216 10.0157 29.6523 10.1386 29.4394 10.3641C29.2262 10.5898 29.1273 10.8577 29.1467 11.1619L29.9511 23.7534C29.9706 24.0576 30.1028 24.3107 30.343 24.5075C30.5828 24.7041 30.8656 24.7917 31.1853 24.7712L34.8448 24.5374C35.6079 24.4887 36.2855 24.3404 36.8759 24.0907L36.8759 24.0907L36.8778 24.0898C37.4648 23.8272 37.9592 23.4921 38.3592 23.0837C38.7738 22.6745 39.0794 22.2075 39.2747 21.6831Z" fill="black" stroke="black" stroke-width="0.2"/>
<path d="M16.1553 33.5895L16.1553 33.5895L16.1539 33.591C15.6771 34.1075 15.2544 34.7368 14.8851 35.4775L12.8603 39.5384C12.491 40.2791 12.2428 40.9953 12.1172 41.687L12.1172 41.6869L12.1169 41.689C12.0047 42.3879 12.0218 43.0495 12.1697 43.6727L12.1696 43.6727L12.1705 43.6759C12.339 44.2949 12.6513 44.8629 13.1055 45.3796L13.1061 45.3802C13.5746 45.9045 14.2004 46.3603 14.9802 46.7491C15.4382 46.9774 15.9054 47.1544 16.382 47.2798C16.8567 47.4047 17.2927 47.4779 17.6896 47.4983L17.6896 47.4983L17.6913 47.4984C18.1071 47.5126 18.4698 47.4739 18.7773 47.3795L18.7773 47.3795L18.7804 47.3785C19.0991 47.2692 19.3303 47.0892 19.4583 46.8325C19.559 46.6306 19.5693 46.4178 19.4913 46.2011C19.4184 45.9678 19.2602 45.7926 19.0266 45.6762C18.8708 45.5985 18.7201 45.5647 18.5804 45.5925C18.4771 45.603 18.316 45.6157 18.0964 45.6305L18.0964 45.6303L18.0903 45.6311C17.3305 45.7288 16.5878 45.5975 15.8599 45.2345C15.3095 44.9601 14.887 44.6561 14.5879 44.3243C14.295 43.9799 14.1078 43.6059 14.0235 43.2017C13.9518 42.8008 13.9644 42.3717 14.0633 41.9133C14.1827 41.4454 14.3729 40.9488 14.6349 40.4232L16.6597 36.3623C16.9219 35.8364 17.201 35.392 17.4964 35.028C17.8095 34.6602 18.1478 34.3857 18.5108 34.2019C18.884 34.0261 19.2917 33.9569 19.7362 33.9959L19.7362 33.996L19.739 33.9961C20.1895 34.0229 20.6893 34.1708 21.2394 34.4452C21.9674 34.8081 22.5193 35.3223 22.8984 35.9879L22.8984 35.9879L22.8997 35.9901C23.0082 36.1699 23.0848 36.3083 23.1308 36.4065L23.1344 36.4144L23.1394 36.4214C23.2197 36.5363 23.3421 36.6309 23.4979 36.7085C23.7297 36.8241 23.9606 36.8524 24.185 36.7834L24.1851 36.7836L24.1896 36.7819C24.4138 36.7012 24.5803 36.5598 24.6812 36.3575C24.8092 36.1007 24.8108 35.8135 24.6993 35.5049C24.5958 35.1887 24.4079 34.8751 24.1397 34.5638C23.8906 34.246 23.5726 33.9353 23.1871 33.6314C22.8002 33.3262 22.3776 33.0595 21.9197 32.8312C21.1399 32.4424 20.3993 32.2168 19.6986 32.1582L19.6986 32.1582L19.6978 32.1581C19.011 32.1063 18.3658 32.2052 17.7636 32.4562L17.7633 32.4563C17.182 32.7007 16.6461 33.0792 16.1553 33.5895Z" fill="black" stroke="black" stroke-width="0.2"/>
</svg>
