<svg width="26" height="26" viewBox="0 0 26 26" fill="none" xmlns="http://www.w3.org/2000/svg">
<path d="M12.7983 16.509C8.37192 15.1869 13.8501 13.0417 15.1475 8.76464C16.445 4.48756 13.0703 -0.301732 17.4967 1.0203C21.9231 2.34234 24.4597 6.88132 23.1623 11.1584C21.8649 15.4355 17.2248 17.831 12.7983 16.509Z" fill="white"/>
<path fill-rule="evenodd" clip-rule="evenodd" d="M12.0423 15.3273C12.2464 15.4777 12.5253 15.5999 13.029 15.7485C17.0517 16.95 21.2318 14.7676 22.396 10.9295C23.5603 7.09144 21.2887 2.98217 17.2661 1.78073C16.7633 1.62881 16.4628 1.5779 16.2089 1.5916C16.1019 1.59346 16.0876 1.5953 16.0335 1.61918C16.0269 1.62092 16.0223 1.62172 16.0193 1.62191C16.0186 1.62338 16.0174 1.6252 16.0157 1.62745C16.0052 1.63534 16.0028 1.63472 16.002 1.63558C16.0009 1.63674 16.0027 1.64062 15.9916 1.67181C15.9641 1.73227 15.9566 1.76712 15.9428 1.8723C15.9079 2.09989 15.9159 2.36031 15.9463 2.72848C15.969 3.00524 16.0088 3.32557 16.0529 3.67937C16.2324 5.1227 16.4812 7.12291 15.9138 8.9935C15.3464 10.8641 14.0262 12.3957 13.0736 13.5009C12.8401 13.7718 12.6286 14.0171 12.4558 14.2354C12.2256 14.5257 12.0741 14.7386 11.9765 14.9474C11.9295 15.0427 11.9164 15.0759 11.9057 15.1413C11.8977 15.1734 11.8939 15.1756 11.8942 15.1772C11.8944 15.1784 11.8968 15.1792 11.9012 15.1915C11.9013 15.1943 11.9013 15.1965 11.9011 15.1981C11.9035 15.1999 11.9068 15.2031 11.9113 15.2081C11.9432 15.2577 11.9541 15.2671 12.0423 15.3273ZM12.5193 12.9181C11.0669 14.609 10.1216 15.7095 12.7983 16.509C17.2248 17.831 21.8649 15.4355 23.1623 11.1584C24.4597 6.88132 21.9231 2.34234 17.4967 1.0203C14.82 0.220836 14.996 1.65623 15.2664 3.86174C15.4432 5.30336 15.6604 7.07402 15.1475 8.76464C14.6347 10.4553 13.4686 11.8128 12.5193 12.9181Z" fill="black"/>
<path d="M0.543755 8.54961C0.298055 8.23124 0.359134 7.77573 0.680177 7.5322L3.39307 5.47434C3.71411 5.23082 4.17355 5.29149 4.41925 5.60987C4.66495 5.92824 4.60387 6.38375 4.28283 6.62727L1.56993 8.68513C1.24889 8.92866 0.789454 8.86798 0.543755 8.54961Z" fill="black"/>
<path d="M3.19391 5.77417C3.34941 5.40405 3.77803 5.22855 4.15127 5.38218L10.9219 8.16903C11.2951 8.32266 11.4716 8.74725 11.3161 9.11737C11.1606 9.4875 10.732 9.663 10.3588 9.50937L3.58816 6.72251C3.21492 6.56888 3.0384 6.1443 3.19391 5.77417Z" fill="black"/>
<path d="M20.8516 2.96024C21.0313 3.11757 20.9958 3.46605 20.7724 3.73859L16.5174 8.92783C16.2939 9.20037 15.967 9.29376 15.7873 9.13642C15.6076 8.97909 15.643 8.6306 15.8665 8.35807L20.1215 3.16883C20.345 2.89629 20.6718 2.8029 20.8516 2.96024Z" fill="black"/>
<path d="M12.0505 14.7124C12.0505 14.3114 12.3781 13.9863 12.7821 13.9863H16.1971C16.6012 13.9863 16.9287 14.3114 16.9287 14.7124C16.9287 15.1134 16.6012 15.4385 16.1971 15.4385H12.7821C12.3781 15.4385 12.0505 15.1134 12.0505 14.7124Z" fill="black"/>
<path d="M15.8548 14.1065C16.205 13.9064 16.653 14.0255 16.8555 14.3726L20.5272 20.6674C20.7296 21.0144 20.6098 21.458 20.2596 21.6582C19.9094 21.8583 19.4614 21.7392 19.259 21.3921L15.5873 15.0973C15.3848 14.7502 15.5046 14.3066 15.8548 14.1065Z" fill="black"/>
<path d="M16.4951 14.7124C16.4951 14.3114 16.1676 13.9863 15.7635 13.9863H12.3485C11.9445 13.9863 11.6169 14.3114 11.6169 14.7124C11.6169 15.1134 11.9445 15.4385 12.3485 15.4385H15.7635C16.1676 15.4385 16.4951 15.1134 16.4951 14.7124Z" fill="black"/>
<path d="M12.6907 14.1065C12.3405 13.9064 11.8925 14.0255 11.6901 14.3726L8.01837 20.6674C7.81591 21.0144 7.93568 21.458 8.28588 21.6582C8.63608 21.8583 9.0841 21.7392 9.28655 21.3921L12.9582 15.0973C13.1607 14.7502 13.0409 14.3066 12.6907 14.1065Z" fill="black"/>
<path d="M5.70878 8.90395C5.70878 4.02515 9.69465 8.90395 14.6115 8.90395C19.5283 8.90395 23.5142 4.02515 23.5142 8.90395C23.5142 13.7827 19.5283 17.7378 14.6115 17.7378C9.69465 17.7378 5.70878 13.7827 5.70878 8.90395Z" fill="white"/>
<path fill-rule="evenodd" clip-rule="evenodd" d="M6.64424 7.76747C6.56869 7.97995 6.50898 8.33551 6.50898 8.90395C6.50898 13.344 10.1365 16.9437 14.6115 16.9437C19.0865 16.9437 22.714 13.344 22.714 8.90395C22.714 8.33551 22.6542 7.97995 22.5787 7.76747C22.542 7.65718 22.532 7.63694 22.4872 7.58604C22.4717 7.56271 22.4731 7.55886 22.4723 7.55827C22.4715 7.55774 22.4689 7.55986 22.4501 7.55272C22.4327 7.54387 22.3476 7.51029 22.1125 7.5453C21.8543 7.58125 21.5727 7.67184 21.1918 7.8164C20.9019 7.92615 20.5727 8.06629 20.2105 8.22048C18.745 8.84435 16.7395 9.69809 14.6115 9.69809C12.4834 9.69809 10.478 8.84435 9.01248 8.22048C8.65028 8.06629 8.32107 7.92615 8.03114 7.8164C7.65021 7.67184 7.36864 7.58125 7.11049 7.5453C6.87537 7.51029 6.79024 7.54387 6.77281 7.55272C6.75409 7.55986 6.75144 7.55774 6.75068 7.55827C6.74983 7.55886 6.75129 7.56271 6.73575 7.58604C6.69095 7.63694 6.68098 7.65718 6.64424 7.76747ZM9.40601 7.52105C7.16638 6.57157 5.70878 5.95362 5.70878 8.90395C5.70878 13.7827 9.69465 17.7378 14.6115 17.7378C19.5283 17.7378 23.5142 13.7827 23.5142 8.90395C23.5142 5.95362 22.0566 6.57157 19.8169 7.52105C18.353 8.14168 16.555 8.90395 14.6115 8.90395C12.668 8.90395 10.8699 8.14168 9.40601 7.52105Z" fill="black"/>
<path d="M4.48935 22.0936C4.48935 20.0218 6.18198 18.3423 8.26994 18.3423C10.3579 18.3423 12.0505 20.0218 12.0505 22.0936C12.0505 24.1654 10.3579 25.845 8.26994 25.845C6.18198 25.845 4.48935 24.1654 4.48935 22.0936Z" fill="white"/>
<path fill-rule="evenodd" clip-rule="evenodd" d="M8.26994 19.1364C6.6238 19.1364 5.28955 20.4605 5.28955 22.0936C5.28955 23.7267 6.6238 25.0508 8.26994 25.0508C9.91609 25.0508 11.2503 23.7267 11.2503 22.0936C11.2503 20.4605 9.91609 19.1364 8.26994 19.1364ZM8.26994 18.3423C6.18198 18.3423 4.48935 20.0218 4.48935 22.0936C4.48935 24.1654 6.18198 25.845 8.26994 25.845C10.3579 25.845 12.0505 24.1654 12.0505 22.0936C12.0505 20.0218 10.3579 18.3423 8.26994 18.3423Z" fill="black"/>
<path d="M16.9288 22.0936C16.9288 20.0218 18.6214 18.3423 20.7094 18.3423C22.7974 18.3423 24.49 20.0218 24.49 22.0936C24.49 24.1654 22.7974 25.845 20.7094 25.845C18.6214 25.845 16.9288 24.1654 16.9288 22.0936Z" fill="white"/>
<path fill-rule="evenodd" clip-rule="evenodd" d="M20.7094 19.1364C19.0633 19.1364 17.729 20.4605 17.729 22.0936C17.729 23.7267 19.0633 25.0508 20.7094 25.0508C22.3555 25.0508 23.6898 23.7267 23.6898 22.0936C23.6898 20.4605 22.3555 19.1364 20.7094 19.1364ZM20.7094 18.3423C18.6214 18.3423 16.9288 20.0218 16.9288 22.0936C16.9288 24.1654 18.6214 25.845 20.7094 25.845C22.7974 25.845 24.49 24.1654 24.49 22.0936C24.49 20.0218 22.7974 18.3423 20.7094 18.3423Z" fill="black"/>
</svg>
