<svg width="32" height="23" viewBox="0 0 32 23" fill="none" xmlns="http://www.w3.org/2000/svg">
<path d="M28.127 7.01056C29.424 9.29553 27.9628 8.87503 24.7162 8.87503C21.4697 8.87503 17.3838 9.23171 18.1945 8.22209C18.1945 7.1069 20.8297 8.62594 23.8702 6.00094C26.3026 5.5971 27.3514 5.64426 28.127 7.01056Z" fill="#BFE2FE"/>
<path d="M8.29729 8.61838V8.67307V8.82354C8.29729 8.96348 8.18385 9.07692 8.04391 9.07692H7.39639H6.47219C6.36067 9.07692 6.27026 8.98651 6.27026 8.875V6.85577C6.27026 6.58192 6.56258 6.40724 6.80374 6.53697L7.32148 6.81547C7.37124 6.84224 7.41765 6.87483 7.45972 6.91255L7.58628 7.02601C8.03876 7.43167 8.29729 8.01068 8.29729 8.61838Z" fill="#F1D3A1" stroke="black"/>
<path d="M6.09624 21.2639L6.21157 20.897C6.23747 20.8147 6.25064 20.7289 6.25064 20.6425V18.8491V18.507C6.25064 18.4432 6.31891 18.4025 6.37503 18.433L6.51143 18.507L6.94255 18.7185L7.37366 18.9301L7.80477 19.1416L8.00936 19.242C8.1589 19.3153 8.3215 19.3584 8.48775 19.3688L8.61497 19.3767C8.70983 19.3826 8.80227 19.4086 8.88634 19.4529C9.0233 19.5252 9.18102 19.5478 9.33278 19.5171L9.51286 19.4806C9.52375 19.4784 9.53483 19.4773 9.54594 19.4773C9.69001 19.4773 9.76618 19.6478 9.67008 19.7551L8.85561 20.6647C8.79173 20.736 8.74289 20.8195 8.71201 20.9102L8.64727 21.1002C8.5334 21.4345 8.29108 21.7097 7.97386 21.8649C7.79213 21.9539 7.59248 22.0001 7.39016 22.0001H6.63651C6.25402 22.0001 5.98152 21.6288 6.09624 21.2639Z" fill="#F1D3A1" stroke="black"/>
<path d="M25.9036 21.2639L25.7883 20.897C25.7624 20.8147 25.7492 20.7289 25.7492 20.6425V18.8491V18.507C25.7492 18.4432 25.681 18.4025 25.6248 18.433L25.4884 18.507L25.0573 18.7185L24.6262 18.9301L24.1951 19.1416L23.9905 19.242C23.841 19.3153 23.6784 19.3584 23.5121 19.3688L23.3849 19.3767C23.29 19.3826 23.1976 19.4086 23.1135 19.4529C22.9766 19.5252 22.8189 19.5478 22.6671 19.5171L22.487 19.4806C22.4761 19.4784 22.465 19.4773 22.4539 19.4773C22.3099 19.4773 22.2337 19.6478 22.3298 19.7551L23.1443 20.6647C23.2082 20.736 23.257 20.8195 23.2879 20.9102L23.3526 21.1002C23.4665 21.4345 23.7088 21.7097 24.026 21.8649C24.2078 21.9539 24.4074 22.0001 24.6097 22.0001H25.3634C25.7459 22.0001 26.0184 21.6288 25.9036 21.2639Z" fill="#F1D3A1" stroke="black"/>
<path d="M2.01061 11.096C12.7699 11.0943 19.23 11.0933 29.9893 11.0959C30.547 11.096 31 10.644 31 10.0864C31 9.52887 30.548 9.0769 29.9905 9.0769H16H2.00953C1.45198 9.0769 1 9.52889 1 10.0864C1 10.6441 1.453 11.0961 2.01061 11.096Z" fill="white" stroke="black"/>
<path d="M2.36913 11.1223C2.35116 11.1093 2.33495 11.1002 2.32076 11.0955C2.04181 11.0028 28.9139 11.204 29.4718 11.0955C30.955 10.807 28.261 13.6976 27.757 15.1221L27.3031 16.3615C27.0384 17.0841 26.5946 17.7277 26.0132 18.2319C25.5299 18.6511 24.9635 18.9636 24.3511 19.1488L23.8167 19.3104C23.1446 19.5137 22.4463 19.617 21.7441 19.617H10.0505C9.34724 19.617 8.6481 19.5096 7.97724 19.2986L7.44823 19.1322C6.89384 18.9578 6.38121 18.6713 5.94216 18.2906C5.31971 17.7507 4.86802 17.0412 4.64229 16.2488L4.32136 15.1221C3.87832 13.6912 3.58293 12 2.36913 11.1223Z" fill="white" stroke="black"/>
<path d="M6.47488 5.32251V6.63343C6.47488 6.78018 6.44567 6.92547 6.38895 7.06082C6.02377 7.93227 4.80455 7.97397 4.38069 7.1295L4.36275 7.09377C4.2842 6.93726 4.24329 6.76457 4.24329 6.58945V5.32251V4.89025V4.19865V3.5935V3.27798C4.24329 3.08584 4.27016 2.89464 4.32314 2.70995C4.36892 2.55034 4.43382 2.39684 4.51645 2.25281L4.52432 2.23909C4.63388 2.04809 4.77162 1.8747 4.93288 1.72476L5.06154 1.60515L5.28607 1.42249C5.622 1.1492 6.04182 1 6.47488 1H6.8856C7.10658 1 7.32645 1.03129 7.53865 1.09295C7.72142 1.14605 7.89703 1.22125 8.06159 1.31687L8.11713 1.34915C8.40775 1.51802 8.66063 1.74472 8.86013 2.01522C8.95582 2.14496 9.03851 2.2838 9.107 2.42973L9.31638 2.87586C9.4046 3.06381 9.45033 3.26889 9.45033 3.47652V4.44394C9.45033 4.69043 9.2505 4.89025 9.00401 4.89025H8.55769H8.3636C8.20347 4.89025 8.0513 4.82044 7.94687 4.69907C7.86103 4.59931 7.81383 4.47208 7.81383 4.34049V4.28376C7.81383 4.22723 7.80701 4.1709 7.79351 4.11601L7.70555 3.7582C7.67865 3.64878 7.63894 3.54292 7.58725 3.4428L7.49273 3.25971C7.45925 3.19486 7.412 3.13809 7.3543 3.09339L7.31742 3.06481C7.25345 3.01525 7.17483 2.98835 7.09391 2.98835C7.0295 2.98835 6.96625 3.0054 6.91056 3.03776L6.85273 3.07136C6.75171 3.13006 6.66956 3.21641 6.61596 3.32023L6.57625 3.39714C6.50964 3.52617 6.47488 3.66928 6.47488 3.81449V4.37155V5.32251Z" fill="white" stroke="black"/>
<path d="M3.02698 7.90192V8.63571C3.02698 8.87933 3.22447 9.07683 3.46809 9.07683H6.23451C6.47813 9.07683 6.67563 8.87933 6.67563 8.63571V7.9848V7.96984C6.67563 7.61777 6.55922 7.27556 6.34453 6.99652C6.27926 6.91168 6.20562 6.83362 6.12472 6.76352L5.96577 6.62579C5.86701 6.54021 5.75855 6.46653 5.6426 6.40625C5.40474 6.28258 5.14059 6.21802 4.8725 6.21802H4.63668H4.44665C4.22049 6.21802 3.99918 6.28361 3.80954 6.40686C3.71754 6.46664 3.63442 6.53908 3.56262 6.62204L3.45958 6.74108C3.38597 6.82612 3.32062 6.91798 3.2644 7.0154C3.10886 7.28496 3.02698 7.5907 3.02698 7.90192Z" fill="#F1D3A1"/>
<path d="M6.67563 8.63571V7.9848V7.96984C6.67563 7.61777 6.55922 7.27556 6.34453 6.99652V6.99652C6.27926 6.91168 6.20562 6.83362 6.12472 6.76352L5.96577 6.62579C5.86701 6.54021 5.75855 6.46653 5.6426 6.40625V6.40625C5.40474 6.28258 5.14059 6.21802 4.8725 6.21802H4.63668H4.44665C4.22049 6.21802 3.99918 6.28361 3.80954 6.40686V6.40686C3.71754 6.46664 3.63442 6.53908 3.56262 6.62204L3.45958 6.74108C3.38597 6.82612 3.32062 6.91798 3.2644 7.0154V7.0154C3.10886 7.28496 3.02698 7.5907 3.02698 7.90192V8.63571V8.63571C3.02698 8.87934 3.22447 9.07683 3.46809 9.07683H6.23451C6.47813 9.07683 6.67563 8.87934 6.67563 8.63571V8.63571ZM6.67563 8.63571V6.24991" stroke="black"/>
<path fill-rule="evenodd" clip-rule="evenodd" d="M24.1947 5.31273C24.5182 5.13285 24.8811 5.03857 25.2499 5.03857H25.6004C26.0454 5.03857 26.4831 5.15232 26.8735 5.36934C27.0183 5.44985 27.1554 5.54393 27.283 5.65035L27.5876 5.90439C27.7745 6.06028 27.9334 6.24789 28.0574 6.4589C28.251 6.78866 28.4352 7.27569 28.3382 7.54952V7.54952C28.2843 7.74172 28.0869 7.85584 27.8935 7.80669L27.8535 7.79654L27.7164 7.54952C27.7164 7.28992 27.6056 7.03514 27.4746 6.81221C27.3909 6.66956 27.2834 6.54273 27.157 6.43733L26.8524 6.18329C26.7575 6.10411 26.6555 6.0341 26.5477 5.97419C26.2573 5.81271 25.9315 5.72807 25.6004 5.72807H25.2499C24.9949 5.72807 24.7441 5.79324 24.5205 5.91758C24.3628 6.00526 24.2216 6.12067 24.1036 6.25845L23.8682 6.53337C23.8465 6.55867 23.8271 6.58589 23.8102 6.61469L23.7193 6.7694C23.4785 7.17937 22.9915 7.36671 22.5439 7.22154C22.5112 7.21094 22.4771 7.20555 22.4429 7.20555H22.3699C22.2861 7.20555 22.2041 7.22989 22.1334 7.27569C22.0916 7.30284 22.0546 7.337 22.024 7.37671L21.8305 7.62776C21.6445 8.06881 21.0647 8.15614 20.761 7.78679L20.6929 7.70393C20.692 7.70277 20.6909 7.70173 20.6897 7.70081L20.5965 7.62828C20.4084 7.48188 20.1781 7.40255 19.9412 7.40255H19.8142C19.4948 7.40255 19.1844 7.50948 18.9309 7.70678L18.9218 7.71392L18.4118 8.21011L18.2437 8.33281C18.0948 8.44149 17.9587 8.56737 17.8384 8.70791C17.6156 8.96802 17.3871 8.90525 17.0929 9.07703H16.6082V8.82736L16.7193 8.76247C16.9481 8.62892 17.1533 8.45751 17.3265 8.25529C17.4813 8.07451 17.6563 7.91259 17.8478 7.77279L17.9771 7.67848L18.4794 7.18968L18.5183 7.15945C18.8902 6.86995 19.3456 6.71306 19.8142 6.71306H19.9412C20.3273 6.71306 20.7027 6.84235 21.0092 7.08094L21.1024 7.15348C21.1433 7.18533 21.1806 7.22169 21.2137 7.26188L21.2378 7.29117C21.2538 7.26186 21.2722 7.23383 21.2926 7.20735L21.4897 6.95158C21.5676 6.85052 21.6618 6.76361 21.7683 6.69454C21.948 6.57798 22.1567 6.51606 22.3699 6.51606H22.4429C22.5472 6.51606 22.6509 6.53247 22.7502 6.5647C22.8974 6.61241 23.0574 6.55084 23.1366 6.41609L23.2274 6.26138C23.265 6.1974 23.3081 6.13695 23.3563 6.08075L23.5917 5.80583C23.7624 5.60652 23.9666 5.43956 24.1947 5.31273Z" fill="black"/>
<path d="M26.5477 5.97419C26.6555 6.0341 26.7575 6.10411 26.8524 6.18329L27.157 6.43733C27.2834 6.54273 27.3909 6.66956 27.4746 6.81221C27.6056 7.03514 27.7164 7.28992 27.7164 7.54952L27.8535 7.79654L27.8935 7.80669C28.0869 7.85584 28.2843 7.74172 28.3382 7.54952V7.54952C28.4352 7.27569 28.251 6.78866 28.0574 6.4589C27.9334 6.24789 27.7745 6.06028 27.5876 5.90439L27.283 5.65035C27.1554 5.54393 27.0183 5.44985 26.8735 5.36934C26.4831 5.15232 26.0454 5.03857 25.6004 5.03857H25.2499C24.8811 5.03857 24.5182 5.13285 24.1947 5.31273C23.9666 5.43956 23.7624 5.60652 23.5917 5.80583L23.3563 6.08075M26.5477 5.97419L26.7096 5.67363M26.5477 5.97419C26.2573 5.81271 25.9315 5.72807 25.6004 5.72807H25.2499C24.9949 5.72807 24.7441 5.79324 24.5205 5.91758M24.5205 5.91758L24.3576 5.61516M24.5205 5.91758C24.3628 6.00526 24.2216 6.12067 24.1036 6.25845L23.8682 6.53337C23.8465 6.55867 23.8271 6.58589 23.8102 6.61469L23.7193 6.7694C23.4785 7.17937 22.9915 7.36671 22.5439 7.22154C22.5112 7.21094 22.4771 7.20555 22.4429 7.20555H22.3699C22.2861 7.20555 22.2041 7.22989 22.1334 7.27569C22.0916 7.30284 22.0546 7.337 22.024 7.37671L21.8305 7.62776C21.6445 8.06881 21.0647 8.15614 20.761 7.78679L20.6929 7.70393M20.6929 7.70393L20.9533 7.48291M20.6929 7.70393C20.692 7.70277 20.6909 7.70173 20.6897 7.70081L20.5965 7.62828C20.4084 7.48188 20.1781 7.40255 19.9412 7.40255H19.8142C19.4948 7.40255 19.1844 7.50948 18.9309 7.70678L18.9218 7.71392L18.4118 8.21011L18.2437 8.33281C18.0948 8.44149 17.9587 8.56737 17.8384 8.70791C17.6156 8.96802 17.3871 8.90525 17.0929 9.07703H16.6082V8.82736L16.7193 8.76247M16.7193 8.76247L16.8883 9.06139M16.7193 8.76247C16.9481 8.62892 17.1533 8.45751 17.3265 8.25529C17.4813 8.07451 17.6563 7.91259 17.8478 7.77279L17.9771 7.67848L18.4794 7.18968L18.5183 7.15945C18.8902 6.86995 19.3456 6.71306 19.8142 6.71306H19.9412C20.3273 6.71306 20.7027 6.84235 21.0092 7.08094L21.1024 7.15348C21.1433 7.18533 21.1806 7.22169 21.2137 7.26188L21.2378 7.29117C21.2538 7.26186 21.2722 7.23383 21.2926 7.20735L21.4897 6.95158M21.4897 6.95158L21.7568 7.16415M21.4897 6.95158C21.5676 6.85052 21.6618 6.76361 21.7683 6.69454C21.948 6.57798 22.1567 6.51606 22.3699 6.51606H22.4429C22.5472 6.51606 22.6509 6.53247 22.7502 6.5647C22.8974 6.61241 23.0574 6.55084 23.1366 6.41609L23.2274 6.26138C23.265 6.1974 23.3081 6.13695 23.3563 6.08075M23.3563 6.08075L23.6122 6.30706" stroke="black" stroke-width="0.2"/>
<circle cx="19.5" cy="3.5" r="1.1" fill="#BFE2FE" stroke="black" stroke-width="0.8"/>
</svg>
