<svg width="11" height="29" viewBox="0 0 11 29" fill="none" xmlns="http://www.w3.org/2000/svg">
<path d="M0 11.7307C0 9.81349 1.60102 8.25928 3.57599 8.25928H6.79438C8.76935 8.25928 10.3704 9.81349 10.3704 11.7307V25.5286C10.3704 27.4458 8.76935 29 6.79438 29H3.57599C1.60102 29 0 27.4458 0 25.5286V11.7307Z" fill="white"/>
<path fill-rule="evenodd" clip-rule="evenodd" d="M6.79438 9.12714H3.57599C2.09477 9.12714 0.893997 10.2928 0.893997 11.7307V25.5286C0.893997 26.9665 2.09477 28.1322 3.57599 28.1322H6.79438C8.2756 28.1322 9.47637 26.9665 9.47637 25.5286V11.7307C9.47637 10.2928 8.2756 9.12714 6.79438 9.12714ZM3.57599 8.25928C1.60102 8.25928 0 9.81349 0 11.7307V25.5286C0 27.4458 1.60102 29 3.57599 29H6.79438C8.76935 29 10.3704 27.4458 10.3704 25.5286V11.7307C10.3704 9.81349 8.76935 8.25928 6.79438 8.25928H3.57599Z" fill="black"/>
<path d="M1.55554 12.4077C1.55554 12.1213 1.80238 11.8892 2.10688 11.8892H4.63384C4.93833 11.8892 5.18517 12.1213 5.18517 12.4077C5.18517 12.694 4.93833 12.9262 4.63384 12.9262H2.10688C1.80238 12.9262 1.55554 12.694 1.55554 12.4077Z" fill="black"/>
<path d="M1.55554 15C1.55554 14.7136 1.80238 14.4814 2.10688 14.4814H4.63384C4.93833 14.4814 5.18517 14.7136 5.18517 15C5.18517 15.2863 4.93833 15.5185 4.63384 15.5185H2.10688C1.80238 15.5185 1.55554 15.2863 1.55554 15Z" fill="black"/>
<path d="M1.55554 17.0742C1.55554 16.7878 1.80238 16.5557 2.10688 16.5557H4.63384C4.93833 16.5557 5.18517 16.7878 5.18517 17.0742C5.18517 17.3606 4.93833 17.5927 4.63384 17.5927H2.10688C1.80238 17.5927 1.55554 17.3606 1.55554 17.0742Z" fill="black"/>
<path d="M1.55554 19.6665C1.55554 19.3801 1.80238 19.1479 2.10688 19.1479H4.63384C4.93833 19.1479 5.18517 19.3801 5.18517 19.6665C5.18517 19.9528 4.93833 20.185 4.63384 20.185H2.10688C1.80238 20.185 1.55554 19.9528 1.55554 19.6665Z" fill="black"/>
<path d="M1.55554 22.2592C1.55554 21.9729 1.80238 21.7407 2.10688 21.7407H4.63384C4.93833 21.7407 5.18517 21.9729 5.18517 22.2592C5.18517 22.5456 4.93833 22.7778 4.63384 22.7778H2.10688C1.80238 22.7778 1.55554 22.5456 1.55554 22.2592Z" fill="black"/>
<path d="M1.55554 24.852C1.55554 24.5656 1.80238 24.3335 2.10688 24.3335H4.63384C4.93833 24.3335 5.18517 24.5656 5.18517 24.852C5.18517 25.1384 4.93833 25.3705 4.63384 25.3705H2.10688C1.80238 25.3705 1.55554 25.1384 1.55554 24.852Z" fill="black"/>
<path fill-rule="evenodd" clip-rule="evenodd" d="M7.71295 2.87879L9.29393 4.3061C10.8469 5.7081 9.67023 8 7.3975 8H2.6025C0.329766 8 -0.84688 5.7081 0.706067 4.3061L2.42968 2.75002C2.38344 1.36937 3.42102 0 5.06027 0C6.74607 0 7.8243 1.45803 7.71295 2.87879Z" fill="#DCE01A"/>
<path fill-rule="evenodd" clip-rule="evenodd" d="M6.3799 3.28109L6.41712 2.80629C6.45366 2.34007 6.28967 1.87675 6.01004 1.55171C5.74227 1.24046 5.41539 1.09722 5.06027 1.09722C4.71277 1.09722 4.40511 1.23119 4.15069 1.51691C3.88253 1.81805 3.71238 2.25755 3.72783 2.71898L3.74294 3.17018L3.37789 3.49975L1.65428 5.05583C0.877806 5.75683 1.46613 6.90278 2.6025 6.90278H7.3975C8.53387 6.90278 9.12219 5.75683 8.34572 5.05583L6.76474 3.62851L6.3799 3.28109ZM2.42968 2.75002L0.706067 4.3061C-0.84688 5.7081 0.329766 8 2.6025 8H7.3975C9.67023 8 10.8469 5.7081 9.29393 4.3061L7.71295 2.87879C7.8243 1.45803 6.74607 0 5.06027 0C3.42102 0 2.38344 1.36937 2.42968 2.75002Z" fill="black"/>
</svg>
