<svg width="31" height="31" viewBox="0 0 31 31" fill="none" xmlns="http://www.w3.org/2000/svg">
<path d="M9.49365 24.1625C9.49365 23.8743 9.72649 23.6406 10.0137 23.6406H10.5338C10.821 23.6406 11.0538 23.8743 11.0538 24.1625V24.1625C11.0538 24.4507 10.821 24.6843 10.5338 24.6843H10.0137C9.72649 24.6843 9.49365 24.4507 9.49365 24.1625V24.1625Z" fill="black"/>
<path fill-rule="evenodd" clip-rule="evenodd" d="M15.5631 9.40209C15.5631 11.2059 14.2603 12.7404 12.442 13.3091V24.1135C13.2185 24.617 13.7297 25.4744 13.7297 26.4473C13.7297 27.9975 12.4322 29.2541 10.8316 29.2541C9.23098 29.2541 7.93346 27.9975 7.93346 26.4473C7.93346 25.374 8.55556 24.4414 9.46961 23.9692V13.3531C7.57409 12.8232 6.19995 11.2547 6.19995 9.40209C6.19995 7.1141 8.29596 1.72705 10.8815 1.72705C13.4671 1.72705 15.5631 7.1141 15.5631 9.40209Z" fill="#FAEAEA"/>
<path fill-rule="evenodd" clip-rule="evenodd" d="M11.5753 12.6692L12.1841 12.4788C13.711 12.0013 14.6963 10.7558 14.6963 9.40209C14.6963 8.44172 14.2297 6.66268 13.4231 5.10821C13.0242 4.33617 12.6014 3.70608 12.1028 3.23123C11.6279 2.77268 11.2165 2.59677 10.8815 2.59677C10.5465 2.59677 10.1351 2.77267 9.66022 3.23123C9.16167 3.70608 8.73887 4.33617 8.33994 5.10821C7.53337 6.66268 7.0667 8.44171 7.0667 9.40209C7.0667 10.7917 8.10702 12.0694 9.70224 12.5153L10.3364 12.6926V13.3531V23.9692V24.4997L9.86633 24.7425C9.21888 25.0769 8.80021 25.7239 8.80021 26.4473C8.80021 27.4883 9.68045 28.3844 10.8316 28.3844C11.9827 28.3844 12.8629 27.4883 12.8629 26.4473C12.8629 25.7907 12.5192 25.1991 11.9716 24.8439L11.5753 24.587V24.1135V13.3091V12.6692ZM12.442 13.3091C14.2603 12.7404 15.5631 11.2059 15.5631 9.40209C15.5631 7.1141 13.4671 1.72705 10.8815 1.72705C8.29596 1.72705 6.19995 7.1141 6.19995 9.40209C6.19995 11.2547 7.57409 12.8232 9.46961 13.3531V23.9692C8.55556 24.4414 7.93346 25.374 7.93346 26.4473C7.93346 27.9975 9.23098 29.2541 10.8316 29.2541C12.4322 29.2541 13.7297 27.9975 13.7297 26.4473C13.7297 25.4744 13.2185 24.617 12.442 24.1135V13.3091Z" fill="black"/>
<path fill-rule="evenodd" clip-rule="evenodd" d="M21.8014 15.8387C23.3468 15.4388 24.5242 13.3687 24.5242 10.875C24.5242 8.09507 23.0609 1.5498 21.2559 1.5498C19.4509 1.5498 17.9877 8.09507 17.9877 10.875C17.9877 11.4459 18.0494 11.9947 18.1631 12.5063C18.1617 12.5358 18.161 12.5654 18.161 12.5952V27.5543C18.161 28.563 18.9759 29.3808 19.9812 29.3808C20.9865 29.3808 21.8014 28.563 21.8014 27.5543V15.8387Z" fill="#70B0F2"/>
<path fill-rule="evenodd" clip-rule="evenodd" d="M20.9346 15.1648L21.585 14.9965C22.0558 14.8747 22.571 14.4656 22.9849 13.7191C23.4251 12.9398 23.6644 12.012 23.6574 10.875C23.6601 9.55286 23.3132 7.34643 22.7366 5.41919C22.4516 4.46104 22.1406 3.6554 21.7839 3.06183C21.6163 2.7771 21.498 2.61884 21.348 2.49465C21.3032 2.45145 21.2734 2.43347 21.2559 2.42648C21.2385 2.43347 21.2087 2.45145 21.1638 2.49465C21.0139 2.61884 20.8956 2.7771 20.728 3.06183C20.3712 3.6554 20.0602 4.46104 19.7753 5.41919C19.1987 7.34643 18.8518 9.55286 18.8544 10.875C18.8531 11.3971 18.9042 11.8511 19.0091 12.317L19.0345 12.4311L19.0289 12.548C19.0279 12.567 19.0277 12.5758 19.0278 12.5952V27.5543C19.0278 28.0827 19.4546 28.511 19.9812 28.511C20.5078 28.511 20.9346 28.0827 20.9346 27.5543V15.8387V15.1648ZM21.2754 2.42346C21.2752 2.42433 21.2717 2.42516 21.2654 2.42338C21.2724 2.42171 21.2755 2.4226 21.2754 2.42346ZM21.2365 2.42346C21.2364 2.4226 21.2395 2.42171 21.2465 2.42338C21.2402 2.42516 21.2367 2.42433 21.2365 2.42346ZM21.8014 15.8387V27.5543C21.8014 28.563 20.9865 29.3808 19.9812 29.3808C18.9759 29.3808 18.161 28.563 18.161 27.5543V12.5952C18.161 12.5654 18.1617 12.5358 18.1631 12.5063C18.0494 11.9947 17.9877 11.4459 17.9877 10.875C17.9877 8.09507 19.4509 1.5498 21.2559 1.5498C23.0609 1.5498 24.5242 8.09507 24.5242 10.875C24.5242 13.3687 23.3468 15.4388 21.8014 15.8387Z" fill="black"/>
<path d="M21.3683 15.8135C21.1289 15.8135 20.9348 15.6188 20.9348 15.3786V13.8131C20.9348 13.573 21.1289 13.3783 21.3683 13.3783V13.3783C21.6078 13.3783 21.8019 13.573 21.8019 13.8131V15.3786C21.8019 15.6188 21.6078 15.8135 21.3683 15.8135V15.8135Z" fill="black"/>
</svg>
