<svg width="26" height="25" viewBox="0 0 26 25" fill="none" xmlns="http://www.w3.org/2000/svg">
<path d="M7.75715 5.75565C7.75715 7.71504 6.15833 9.3095 4.17857 9.3095C2.19882 9.3095 0.6 7.71504 0.6 5.75565C0.6 3.79627 2.19882 2.20181 4.17857 2.20181C6.15833 2.20181 7.75715 3.79627 7.75715 5.75565Z" fill="white" stroke="black" stroke-width="1.2"/>
<path d="M25.4 5.75565C25.4 7.71504 23.8012 9.3095 21.8214 9.3095C19.8416 9.3095 18.2428 7.71504 18.2428 5.75565C18.2428 3.79627 19.8416 2.20181 21.8214 2.20181C23.8012 2.20181 25.4 3.79627 25.4 5.75565Z" fill="white" stroke="black" stroke-width="1.2"/>
<path d="M24.4713 12.6787C24.4713 18.9714 19.3388 24.0787 12.9999 24.0787C6.66104 24.0787 1.52847 18.9714 1.52847 12.6787C1.52847 6.38602 6.66104 1.27871 12.9999 1.27871C19.3388 1.27871 24.4713 6.38602 24.4713 12.6787Z" fill="white" stroke="black" stroke-width="1.2"/>
<rect width="0.924454" height="2.9064" rx="0.462227" transform="matrix(-0.502227 -0.864736 0.867306 -0.497776 6.03577 9.6123)" fill="black"/>
<rect width="0.924454" height="2.9064" rx="0.462227" transform="matrix(0.502227 -0.864736 -0.867306 -0.497776 19.37 9.6123)" fill="black"/>
<rect width="0.924454" height="2.9064" rx="0.462227" transform="matrix(0.502227 0.864736 -0.867306 0.497776 15.5208 16.3708)" fill="black"/>
<rect width="0.924454" height="2.9064" rx="0.462227" transform="matrix(0.502227 -0.864736 0.867306 0.497776 10.2142 17.1704)" fill="black"/>
<path d="M15.1857 11.7138C15.1857 12.8768 14.2191 13.8411 12.9999 13.8411C11.7808 13.8411 10.8142 12.8768 10.8142 11.7138C10.8142 10.5509 11.7808 9.58657 12.9999 9.58657C14.2191 9.58657 15.1857 10.5509 15.1857 11.7138Z" fill="white" stroke="black" stroke-width="1.2"/>
<path d="M13 19.1404C12.4871 19.1404 12.0714 18.7246 12.0714 18.2118V14.5305C12.0714 14.0177 12.4871 13.6019 13 13.6019C13.5128 13.6019 13.9286 14.0177 13.9286 14.5305V18.2118C13.9286 18.7246 13.5128 19.1404 13 19.1404Z" fill="black"/>
</svg>
