<svg width="31" height="32" viewBox="0 0 31 32" fill="none" xmlns="http://www.w3.org/2000/svg">
<path d="M2.33334 24.9573C1.60737 24.558 1.31051 23.6291 1.6703 22.8827L6.01904 13.8611C6.37883 13.1148 7.25901 12.8335 7.98499 13.2329L16.6862 18.0198C17.4122 18.4192 17.7091 19.3481 17.3493 20.0945L13.0005 29.1161C12.6408 29.8624 11.7606 30.1437 11.0346 29.7443L2.33334 24.9573Z" fill="white" stroke="black"/>
<path d="M17.7772 17.3411C17.7772 16.5126 18.4488 15.8411 19.2772 15.8411H28.8586C29.6871 15.8411 30.3586 16.5126 30.3586 17.3411V27.7009C30.3586 28.5293 29.6871 29.2009 28.8586 29.2009H19.2772C18.4488 29.2009 17.7772 28.5293 17.7772 27.7009V17.3411Z" fill="white" stroke="black"/>
<path d="M10.8475 3.97384C10.7797 3.14816 11.3929 2.4116 12.2172 2.32869L21.8237 1.36242C22.648 1.27951 23.3712 1.88164 23.439 2.70732L24.2805 12.9551C24.3483 13.7807 23.735 14.5173 22.9107 14.6002L13.3043 15.5665C12.48 15.6494 11.7568 15.0473 11.689 14.2216L10.8475 3.97384Z" fill="white" stroke="black"/>
<path d="M21.9167 26.6827L21.9169 26.6828L21.9187 26.6775L22.4666 25.138H25.7691L26.3299 26.6771C26.375 26.8101 26.4651 26.9129 26.5927 26.9852C26.7129 27.0532 26.8341 27.0906 26.955 27.0906C27.1363 27.0906 27.2952 27.0432 27.4247 26.9424C27.558 26.8386 27.6265 26.6977 27.6265 26.5284C27.6265 26.4971 27.6212 26.4616 27.6128 26.4242C27.6121 26.3895 27.6079 26.3488 27.5908 26.3142L24.9394 19.1915L24.9394 19.1915L24.9382 19.1885C24.8625 19.0037 24.7712 18.8474 24.6628 18.722C24.5377 18.5772 24.3509 18.514 24.1244 18.514C23.9048 18.514 23.7213 18.5783 23.5889 18.7187L23.5888 18.7187L23.586 18.722C23.4767 18.8486 23.3895 19.0062 23.3228 19.1921C23.3227 19.1922 23.3227 19.1924 23.3226 19.1926L20.6718 26.3135C20.6572 26.3418 20.6468 26.3776 20.6385 26.413L20.6358 26.4244V26.436V26.4362V26.4364V26.4367V26.4369V26.4371V26.4373V26.4376V26.4378V26.438V26.4382V26.4384V26.4387V26.4389V26.4391V26.4393V26.4396V26.4398V26.44V26.4402V26.4405V26.4407V26.4409V26.4411V26.4413V26.4416V26.4418V26.442V26.4422V26.4424V26.4427V26.4429V26.4431V26.4433V26.4435V26.4438V26.444V26.4442V26.4444V26.4446V26.4449V26.4451V26.4453V26.4455V26.4457V26.446V26.4462V26.4464V26.4466V26.4468V26.447V26.4473V26.4475V26.4477V26.4479V26.4481V26.4483V26.4486V26.4488V26.449V26.4492V26.4494V26.4496V26.4498V26.4501V26.4503V26.4505V26.4507V26.4509V26.4511V26.4513V26.4516V26.4518V26.452V26.4522V26.4524V26.4526V26.4528V26.453V26.4533V26.4535V26.4537V26.4539V26.4541V26.4543V26.4545V26.4547V26.4549V26.4552V26.4554V26.4556V26.4558V26.456V26.4562V26.4564V26.4566V26.4568V26.457V26.4572V26.4575V26.4577V26.4579V26.4581V26.4583V26.4585V26.4587V26.4589V26.4591V26.4593V26.4595V26.4597V26.4599V26.4601V26.4604V26.4606V26.4608V26.461V26.4612V26.4614V26.4616V26.4618V26.462V26.4622V26.4624V26.4626V26.4628V26.463V26.4632V26.4634V26.4636V26.4638V26.464V26.4642V26.4644V26.4646V26.4648V26.465V26.4652V26.4654V26.4656V26.4658V26.466V26.4662V26.4664V26.4666V26.4668V26.467V26.4672V26.4674V26.4676V26.4678V26.468V26.4682V26.4684V26.4686V26.4688V26.469V26.4692V26.4694V26.4696V26.4698V26.47V26.4702V26.4704V26.4706V26.4708V26.471V26.4712V26.4714V26.4716V26.4718V26.472V26.4722V26.4724V26.4726V26.4728V26.473V26.4732V26.4734V26.4735V26.4737V26.4739V26.4741V26.4743V26.4745V26.4747V26.4749V26.4751V26.4753V26.4755V26.4757V26.4759V26.4761V26.4762V26.4764V26.4766V26.4768V26.477V26.4772V26.4774V26.4776V26.4778V26.478V26.4782V26.4783V26.4785V26.4787V26.4789V26.4791V26.4793V26.4795V26.4797V26.4799V26.48V26.4802V26.4804V26.4806V26.4808V26.481V26.4812V26.4814V26.4815V26.4817V26.4819V26.4821V26.4823V26.4825V26.4827V26.4828V26.483V26.4832V26.4834V26.4836V26.4838V26.484V26.4841V26.4843V26.4845V26.4847V26.4849V26.4851V26.4852V26.4854V26.4856V26.4858V26.486V26.4862V26.4863V26.4865V26.4867V26.4869V26.4871V26.4872V26.4874V26.4876V26.4878V26.488V26.4881V26.4883V26.4885V26.4887V26.4889V26.489V26.4892V26.4894V26.4896V26.4898V26.4899V26.4901V26.4903V26.4905V26.4907V26.4908V26.491V26.4912V26.4914V26.4915V26.4917V26.4919V26.4921V26.4922V26.4924V26.4926V26.4928V26.493V26.4931V26.4933V26.4935V26.4937V26.4938V26.494V26.4942V26.4944V26.4945V26.4947V26.4949V26.495V26.4952V26.4954V26.4956V26.4957V26.4959V26.4961V26.4963V26.4964V26.4966V26.4968V26.4969V26.4971V26.4973V26.4975V26.4976V26.4978V26.498V26.4981V26.4983V26.4985V26.4987V26.4988V26.499V26.4992V26.4993V26.4995V26.4997V26.4998V26.5V26.5002V26.5003V26.5005V26.5007V26.5008V26.501V26.5012V26.5013V26.5015V26.5017V26.5018V26.502V26.5022V26.5023V26.5025V26.5027V26.5028V26.503V26.5032V26.5033V26.5035V26.5037V26.5038V26.504V26.5042V26.5043V26.5045V26.5047V26.5048V26.505V26.5051V26.5053V26.5055V26.5056V26.5058V26.506V26.5061V26.5063V26.5064V26.5066V26.5068V26.5069V26.5071V26.5072V26.5074V26.5076V26.5077V26.5079V26.508V26.5082V26.5084V26.5085V26.5087V26.5088V26.509V26.5092V26.5093V26.5095V26.5096V26.5098V26.5099V26.5101V26.5103V26.5104V26.5106V26.5107V26.5109V26.511V26.5112V26.5114V26.5115V26.5117V26.5118V26.512V26.5121V26.5123V26.5124V26.5126V26.5128V26.5129V26.5131V26.5132V26.5134V26.5135V26.5137V26.5138V26.514V26.5141V26.5143V26.5144V26.5146V26.5147V26.5149V26.5151V26.5152V26.5154V26.5155V26.5157V26.5158V26.516V26.5161V26.5163V26.5164V26.5166V26.5167V26.5169V26.517V26.5172V26.5173V26.5175V26.5176V26.5178V26.5179V26.5181V26.5182V26.5183V26.5185V26.5186V26.5188V26.5189V26.5191V26.5192V26.5194V26.5195V26.5197V26.5198V26.52V26.5201V26.5203V26.5204V26.5205V26.5207V26.5208V26.521V26.5211V26.5213V26.5214V26.5216V26.5217V26.5218V26.522V26.5221V26.5223V26.5224V26.5226V26.5227V26.5228V26.523V26.5231V26.5233V26.5234V26.5236V26.5237V26.5238V26.524V26.5241V26.5243V26.5244V26.5245V26.5247V26.5248V26.525V26.5251V26.5252V26.5254V26.5255V26.5257V26.5258V26.5259V26.5261V26.5262V26.5264V26.5265V26.5266V26.5268V26.5269V26.527V26.5272V26.5273V26.5275V26.5276V26.5277V26.5279V26.528V26.5281V26.5283V26.5284C20.6358 26.6977 20.7044 26.8386 20.8377 26.9424L20.8377 26.9424L20.8408 26.9447C20.9768 27.0424 21.1336 27.0906 21.3074 27.0906C21.4288 27.0906 21.5465 27.0529 21.6593 26.9832C21.7768 26.9107 21.8633 26.8098 21.9167 26.6827ZM22.8647 24.0368L24.1244 20.5168L25.3841 24.0368H22.8647Z" fill="black" stroke="black" stroke-width="0.2"/>
<path d="M19.4073 7.95144C19.602 7.82176 19.7673 7.67247 19.9024 7.50325C20.0383 7.33302 20.1423 7.13996 20.2146 6.92488C20.2882 6.70608 20.3157 6.46324 20.2997 6.19795C20.2822 5.9076 20.2148 5.6324 20.0975 5.37302C19.979 5.10405 19.8073 4.87197 19.5833 4.67749C19.3655 4.47334 19.0971 4.32052 18.7803 4.21762C18.4665 4.10463 18.1055 4.06359 17.6999 4.09099L15.6523 4.22931C15.4651 4.24195 15.3064 4.31862 15.1822 4.45776C15.0579 4.59697 15.0004 4.76249 15.0116 4.94837L15.4511 12.2211C15.4623 12.407 15.5393 12.5635 15.6793 12.6848C15.8193 12.8061 15.9859 12.8608 16.1731 12.8482L18.1723 12.7131C18.5938 12.6846 18.9696 12.5979 19.2982 12.451L19.2982 12.451L19.3002 12.4501C19.6256 12.2961 19.9005 12.0993 20.1233 11.8589C20.354 11.6181 20.5241 11.3432 20.6327 11.0348L20.633 11.0339C20.7408 10.7182 20.7839 10.3865 20.763 10.0397C20.7422 9.69532 20.6663 9.40441 20.5301 9.17204C20.4052 8.94499 20.2435 8.7603 20.0447 8.61998C19.8574 8.48163 19.6471 8.37863 19.4147 8.31072C19.2832 8.26593 19.1533 8.2254 19.0251 8.18915C19.161 8.11293 19.2885 8.03371 19.4073 7.95144ZM19.4073 7.95144C19.4075 7.95127 19.4078 7.95109 19.4081 7.95091L19.3516 7.86877L19.4065 7.95196C19.4068 7.95179 19.407 7.95162 19.4073 7.95144ZM18.2001 7.57415L18.2001 7.57414L18.1991 7.57451C18.017 7.64028 17.834 7.6792 17.6499 7.69164L16.3563 7.77902L16.2082 5.3275L17.7077 5.22621C17.9744 5.20819 18.1937 5.22841 18.3685 5.28278L18.3685 5.28285L18.3721 5.28383C18.5492 5.33159 18.689 5.40626 18.7954 5.50515L18.7953 5.50519L18.7979 5.50744C18.9056 5.60071 18.9849 5.71325 19.0366 5.84621L19.0366 5.84622L19.0372 5.8477C19.09 5.97715 19.1211 6.11604 19.1301 6.26496C19.1437 6.48871 19.1063 6.68544 19.0211 6.85797L19.0211 6.85796L19.0204 6.85934C18.9403 7.02799 18.8289 7.17249 18.6855 7.29357L18.6855 7.29354L18.6836 7.29519C18.5479 7.41559 18.3872 7.50877 18.2001 7.57415ZM19.0376 9.10906L19.0376 9.10909L19.0398 9.11044C19.379 9.32155 19.5662 9.6558 19.5949 10.1306C19.6193 10.5342 19.4999 10.8661 19.2389 11.1351C18.9802 11.3934 18.564 11.5509 17.9706 11.591L16.5922 11.6841L16.4246 8.91015L17.7546 8.82031C18.2709 8.78543 18.6963 8.88421 19.0376 9.10906Z" fill="black" stroke="black" stroke-width="0.2"/>
<path d="M7.92708 17.8681L7.92707 17.8681L7.92577 17.8696C7.66245 18.1712 7.42961 18.538 7.22656 18.9685L6.12045 21.3141C5.91739 21.7447 5.78048 22.162 5.71113 22.5659L5.71111 22.5659L5.71081 22.5679C5.64883 22.9762 5.65809 23.364 5.74027 23.7301L5.74022 23.7301L5.74105 23.7334C5.8349 24.0979 6.00891 24.4323 6.26133 24.7359L6.26187 24.7366C6.52259 25.0451 6.86969 25.3118 7.29979 25.5386C7.55278 25.6719 7.81109 25.7754 8.07467 25.8487C8.33642 25.9216 8.57784 25.9645 8.79844 25.9765L8.79844 25.9765L8.80017 25.9766C9.03088 25.9849 9.23421 25.9623 9.40799 25.9059L9.408 25.9059L9.41097 25.9049C9.593 25.8389 9.72863 25.7287 9.80399 25.5689C9.86356 25.4425 9.86988 25.3082 9.82385 25.1722C9.78005 25.0249 9.68464 24.914 9.54684 24.8414C9.45678 24.7939 9.36441 24.7703 9.27563 24.7883C9.2199 24.7942 9.13322 24.8014 9.01474 24.8098L9.01472 24.8096L9.00872 24.8104C8.60298 24.8657 8.20654 24.7917 7.8169 24.5863C7.52016 24.4298 7.29484 24.2578 7.13646 24.0723C6.98147 23.8794 6.88282 23.6707 6.83828 23.4455C6.80032 23.2205 6.8068 22.9787 6.85976 22.7189C6.92418 22.4521 7.02697 22.1682 7.16904 21.8669L8.27515 19.5213C8.41735 19.2198 8.56828 18.9658 8.72743 18.7584C8.89552 18.5497 9.07609 18.3952 9.26849 18.2921C9.46511 18.1943 9.67983 18.1557 9.91484 18.1775L9.91484 18.1775L9.91766 18.1777C10.1558 18.1927 10.4225 18.2756 10.7191 18.4319C11.1088 18.6373 11.4032 18.9276 11.6057 19.3034L11.6057 19.3034L11.607 19.3057C11.666 19.4091 11.7069 19.4874 11.731 19.5419L11.7346 19.5501L11.7395 19.5575C11.7892 19.6326 11.8632 19.6919 11.9529 19.7392C12.0888 19.8109 12.2272 19.8295 12.3621 19.7857L12.3622 19.7858L12.3665 19.7842C12.4983 19.734 12.5974 19.6453 12.6571 19.5186C12.7325 19.3588 12.7326 19.181 12.6688 18.9939C12.6102 18.8048 12.5044 18.6188 12.3554 18.4358C12.2167 18.2489 12.0404 18.0671 11.8279 17.8899C11.6139 17.7114 11.3803 17.5556 11.1273 17.4222C10.6972 17.1954 10.2868 17.0629 9.89686 17.0284L9.89686 17.0284L9.89604 17.0283C9.51406 16.9978 9.15459 17.0561 8.81917 17.2038L8.81888 17.204C8.49549 17.3477 8.19834 17.57 7.92708 17.8681Z" fill="black" stroke="black" stroke-width="0.2"/>
</svg>
