<svg width="59" height="38" viewBox="0 0 59 38" fill="none" xmlns="http://www.w3.org/2000/svg">
<path d="M0.75 8.28713C0.75 4.12449 4.12449 0.75 8.28713 0.75H49.8305C53.9932 0.75 57.3676 4.12449 57.3676 8.28713V29.7129C57.3676 33.8755 53.9932 37.25 49.8305 37.25H8.28713C4.12449 37.25 0.75 33.8755 0.75 29.7129V8.28713Z" fill="#BFE2FE" stroke="black" stroke-width="1.5"/>
<path d="M42.8562 6.23579C42.8562 5.47329 43.5166 4.85516 44.3312 4.85516H51.0916C51.9062 4.85516 52.5665 5.47329 52.5665 6.23579C52.5665 6.99829 51.9062 7.61642 51.0916 7.61642H44.3312C43.5166 7.61642 42.8562 6.99829 42.8562 6.23579Z" fill="black"/>
<circle cx="27.168" cy="19.0761" r="12.5118" fill="white" stroke="black" stroke-width="1.8"/>
<circle cx="27.3924" cy="19.1482" r="7.19192" fill="#E8EC15" stroke="black" stroke-width="1.8"/>
</svg>
