<svg width="24" height="20" viewBox="0 0 24 20" fill="none" xmlns="http://www.w3.org/2000/svg">
<mask id="path-1-inside-1_699_171" fill="white">
<path fill-rule="evenodd" clip-rule="evenodd" d="M11.8181 4.71508C11.8014 4.68322 11.7846 4.65169 11.7677 4.6205C9.63559 0.663542 5.55646 -1.09005 2.65677 0.703748C-0.242927 2.49754 -0.865138 7.15944 1.26702 11.1164C3.16675 14.642 8.60419 20.1155 11.8181 19.9981C15.0321 20.1155 20.4695 14.642 22.3692 11.1164C24.5014 7.15944 23.8792 2.49754 20.9795 0.703748C18.0798 -1.09005 14.0007 0.663543 11.8685 4.6205C11.8517 4.65169 11.8349 4.68322 11.8181 4.71508Z"/>
</mask>
<path fill-rule="evenodd" clip-rule="evenodd" d="M11.8181 4.71508C11.8014 4.68322 11.7846 4.65169 11.7677 4.6205C9.63559 0.663542 5.55646 -1.09005 2.65677 0.703748C-0.242927 2.49754 -0.865138 7.15944 1.26702 11.1164C3.16675 14.642 8.60419 20.1155 11.8181 19.9981C15.0321 20.1155 20.4695 14.642 22.3692 11.1164C24.5014 7.15944 23.8792 2.49754 20.9795 0.703748C18.0798 -1.09005 14.0007 0.663543 11.8685 4.6205C11.8517 4.65169 11.8349 4.68322 11.8181 4.71508Z" fill="white"/>
<path d="M11.7677 4.6205L10.4472 5.33203L10.4473 5.33203L11.7677 4.6205ZM11.8181 4.71508L10.4909 5.41405L11.8181 7.93407L13.1453 5.41405L11.8181 4.71508ZM2.65677 0.703748L3.4459 1.97939L2.65677 0.703748ZM1.26702 11.1164L-0.0534772 11.8279H-0.0534771L1.26702 11.1164ZM11.8181 19.9981L11.8728 18.4991L11.8181 18.4971L11.7634 18.4991L11.8181 19.9981ZM22.3692 11.1164L21.0487 10.4049V10.4049L22.3692 11.1164ZM20.9795 0.703748L20.1904 1.97939L20.1904 1.97939L20.9795 0.703748ZM11.8685 4.6205L13.189 5.33203V5.33203L11.8685 4.6205ZM10.4473 5.33203C10.4618 5.35895 10.4763 5.38629 10.4909 5.41405L13.1453 4.0161C13.1264 3.98015 13.1074 3.94443 13.0882 3.90896L10.4473 5.33203ZM3.4459 1.97939C4.40155 1.38822 5.61717 1.32887 6.90767 1.88365C8.20832 2.44279 9.52141 3.61382 10.4472 5.33203L13.0882 3.90896C11.8819 1.67021 10.0894 -0.0140252 8.0925 -0.872465C6.08547 -1.73527 3.81168 -1.77451 1.86764 -0.571897L3.4459 1.97939ZM2.58752 10.4049C1.66229 8.68777 1.35454 6.84993 1.56177 5.29733C1.76986 3.73814 2.47071 2.58266 3.4459 1.97939L1.86764 -0.571897C-0.056867 0.618628 -1.11698 2.69099 -1.41187 4.90045C-1.70763 7.11648 -1.2604 9.58807 -0.0534772 11.8279L2.58752 10.4049ZM11.7634 18.4991C11.3611 18.5138 10.7059 18.3434 9.81021 17.8449C8.94549 17.3637 7.99655 16.6554 7.05186 15.8072C5.1485 14.0983 3.43646 11.9804 2.58752 10.4049L-0.0534771 11.8279C0.997314 13.778 2.95386 16.1596 5.04763 18.0395C6.10151 18.9857 7.23328 19.8441 8.35137 20.4664C9.43846 21.0713 10.6682 21.5411 11.8728 21.4971L11.7634 18.4991ZM11.7634 21.4971C12.968 21.5411 14.1978 21.0713 15.2849 20.4664C16.403 19.8441 17.5347 18.9857 18.5886 18.0395C20.6824 16.1596 22.6389 13.778 23.6897 11.8279L21.0487 10.4049C20.1998 11.9804 18.4878 14.0983 16.5844 15.8072C15.6397 16.6554 14.6908 17.3637 13.826 17.8449C12.9303 18.3434 12.2752 18.5138 11.8728 18.4991L11.7634 21.4971ZM23.6897 11.8279C24.8967 9.58807 25.3439 7.11648 25.0481 4.90045C24.7532 2.69099 23.6931 0.618628 21.7686 -0.571897L20.1904 1.97939C21.1655 2.58266 21.8664 3.73814 22.0745 5.29733C22.2817 6.84993 21.974 8.68777 21.0487 10.4049L23.6897 11.8279ZM21.7686 -0.571897C19.8246 -1.77451 17.5508 -1.73527 15.5438 -0.872465C13.5469 -0.0140251 11.7543 1.67021 10.548 3.90896L13.189 5.33203C14.1148 3.61382 15.4279 2.44279 16.7286 1.88365C18.0191 1.32887 19.2347 1.38822 20.1904 1.97939L21.7686 -0.571897ZM10.548 3.90896C10.5289 3.94443 10.5099 3.98015 10.4909 4.0161L13.1453 5.41405C13.1599 5.38629 13.1745 5.35895 13.189 5.33203L10.548 3.90896Z" fill="black" mask="url(#path-1-inside-1_699_171)"/>
<path d="M14.7109 14.834V16H10.4277V14.834H14.7109ZM10.8379 7.46875V16H9.36719V7.46875H10.8379Z" fill="black"/>
</svg>
