<svg width="160" height="168" viewBox="0 0 160 168" fill="none" xmlns="http://www.w3.org/2000/svg">
<path d="M135 103.5C135 131.943 111.943 155 83.5 155C55.0573 155 32 131.943 32 103.5C32 75.0573 55.0573 52 83.5 52C111.943 52 135 75.0573 135 103.5Z" fill="#8D1C1A"/>
<path d="M132 111C132 135.853 110.51 156 84 156C57.4903 156 36 135.853 36 111C36 86.1472 57.4903 66 84 66C110.51 66 132 86.1472 132 111Z" fill="white"/>
<path d="M69.2577 38.8321L89.903 52H77.709L62.6973 39.0106C58.5299 35.4045 55.8973 30.3429 55.3376 24.8604L55.1695 23.2144C53.994 11.6994 62.7803 1.58138 74.3464 1.13095C76.5725 1.04426 78.7976 1.32898 80.9302 1.97344L82.7263 2.51622C83.9756 2.89375 85.1707 3.4318 86.2815 4.1169L86.9031 4.50031C90.2348 6.55513 92.5094 9.95606 93.1363 13.8199L93.7232 17.4376C94.8176 24.1831 89.4269 30.1343 82.7412 29.8715C82.4557 29.8657 82.1684 29.8433 81.8806 29.8038C82.1695 29.8379 82.4566 29.8604 82.7412 29.8715C85.5142 29.9282 88.1198 28.4233 89.4406 25.9296L90.3695 24.1758C91.8924 21.3005 91.9599 17.873 90.5514 14.94L90.3848 14.5929C87.2388 8.04173 80.1814 4.31556 72.9974 5.41264L70.5261 5.79003C65.3554 6.57966 61.1685 10.4045 59.9157 15.4829C57.7003 24.464 61.4587 33.8578 69.2577 38.8321Z" fill="#8D1C1A"/>
<path d="M76.1045 19.6038V19.6038C73.6157 23.1798 75.4539 28.1411 79.6718 29.2323L81.8806 29.8038M81.8806 29.8038V29.8038C84.964 30.2276 87.9839 28.68 89.4406 25.9296L90.3695 24.1758C91.8924 21.3005 91.9599 17.873 90.5514 14.94L90.3848 14.5929C87.2388 8.04173 80.1814 4.31556 72.9974 5.41264L70.5261 5.79003C65.3554 6.57966 61.1685 10.4045 59.9157 15.4829V15.4829C57.7003 24.464 61.4587 33.8578 69.2577 38.8321L89.903 52H77.709L62.6973 39.0106C58.5299 35.4045 55.8973 30.3429 55.3376 24.8604L55.1695 23.2144C53.994 11.6994 62.7803 1.58138 74.3464 1.13095V1.13095C76.5725 1.04426 78.7976 1.32898 80.9302 1.97344L82.7263 2.51622C83.9756 2.89375 85.1707 3.4318 86.2815 4.1169L86.9031 4.50031C90.2348 6.55513 92.5094 9.95606 93.1363 13.8199L93.7232 17.4376C94.8641 24.4703 88.9561 30.6396 81.8806 29.8038V29.8038Z" stroke="#8D1C1A" stroke-width="2"/>
<path d="M55.176 146.368V148.384H49.944V163H47.616V148.384H42.384V146.368H55.176ZM65.7703 156.04C66.0263 156.36 66.3463 156.784 66.7303 157.312C67.1303 157.824 67.5383 158.4 67.9543 159.04C68.3703 159.664 68.7783 160.32 69.1783 161.008C69.5943 161.696 69.9463 162.36 70.2343 163H67.6903C67.3703 162.392 67.0183 161.776 66.6343 161.152C66.2663 160.528 65.8903 159.936 65.5063 159.376C65.1223 158.8 64.7383 158.264 64.3543 157.768C63.9863 157.272 63.6503 156.84 63.3463 156.472C63.1383 156.488 62.9223 156.496 62.6983 156.496C62.4903 156.496 62.2743 156.496 62.0503 156.496H59.9623V163H57.6343V146.608C58.2903 146.448 59.0183 146.344 59.8183 146.296C60.6343 146.232 61.3783 146.2 62.0503 146.2C64.3863 146.2 66.1623 146.64 67.3783 147.52C68.6103 148.4 69.2263 149.712 69.2263 151.456C69.2263 152.56 68.9303 153.504 68.3383 154.288C67.7623 155.072 66.9063 155.656 65.7703 156.04ZM62.2423 148.24C61.2503 148.24 60.4903 148.264 59.9623 148.312V154.576H61.6183C62.4183 154.576 63.1383 154.536 63.7783 154.456C64.4183 154.376 64.9543 154.224 65.3863 154C65.8343 153.776 66.1783 153.464 66.4183 153.064C66.6583 152.648 66.7783 152.104 66.7783 151.432C66.7783 150.808 66.6583 150.288 66.4183 149.872C66.1783 149.456 65.8503 149.128 65.4343 148.888C65.0343 148.648 64.5543 148.48 63.9943 148.384C63.4503 148.288 62.8663 148.24 62.2423 148.24ZM84.5198 163C84.2478 162.28 83.9918 161.576 83.7518 160.888C83.5118 160.184 83.2638 159.472 83.0078 158.752H75.4718L73.9598 163H71.5358C72.1758 161.24 72.7758 159.616 73.3358 158.128C73.8958 156.624 74.4398 155.2 74.9678 153.856C75.5118 152.512 76.0478 151.232 76.5758 150.016C77.1038 148.784 77.6558 147.568 78.2318 146.368H80.3678C80.9438 147.568 81.4958 148.784 82.0238 150.016C82.5518 151.232 83.0798 152.512 83.6078 153.856C84.1518 155.2 84.7038 156.624 85.2638 158.128C85.8238 159.616 86.4238 161.24 87.0638 163H84.5198ZM82.3358 156.832C81.8238 155.44 81.3118 154.096 80.7998 152.8C80.3038 151.488 79.7838 150.232 79.2398 149.032C78.6798 150.232 78.1438 151.488 77.6318 152.8C77.1358 154.096 76.6398 155.44 76.1438 156.832H82.3358ZM96.0285 163.36C94.8605 163.36 93.7965 163.168 92.8365 162.784C91.8765 162.4 91.0525 161.84 90.3645 161.104C89.6765 160.368 89.1405 159.464 88.7565 158.392C88.3885 157.304 88.2045 156.064 88.2045 154.672C88.2045 153.28 88.4125 152.048 88.8285 150.976C89.2605 149.888 89.8365 148.976 90.5565 148.24C91.2765 147.504 92.1165 146.944 93.0765 146.56C94.0365 146.176 95.0605 145.984 96.1485 145.984C96.8365 145.984 97.4525 146.032 97.9965 146.128C98.5565 146.224 99.0365 146.336 99.4365 146.464C99.8525 146.592 100.189 146.72 100.445 146.848C100.701 146.976 100.877 147.072 100.973 147.136L100.301 149.056C100.157 148.96 99.9485 148.856 99.6765 148.744C99.4045 148.632 99.0925 148.52 98.7405 148.408C98.4045 148.296 98.0285 148.208 97.6125 148.144C97.2125 148.064 96.8045 148.024 96.3885 148.024C95.5085 148.024 94.7165 148.176 94.0125 148.48C93.3085 148.784 92.7085 149.224 92.2125 149.8C91.7165 150.376 91.3325 151.08 91.0605 151.912C90.8045 152.728 90.6765 153.648 90.6765 154.672C90.6765 155.664 90.7885 156.568 91.0125 157.384C91.2525 158.2 91.6045 158.904 92.0685 159.496C92.5325 160.072 93.1085 160.52 93.7965 160.84C94.5005 161.16 95.3165 161.32 96.2445 161.32C97.3165 161.32 98.2045 161.208 98.9085 160.984C99.6125 160.76 100.141 160.56 100.493 160.384L101.093 162.304C100.981 162.384 100.781 162.488 100.493 162.616C100.205 162.728 99.8445 162.84 99.4125 162.952C98.9805 163.064 98.4765 163.16 97.9005 163.24C97.3245 163.32 96.7005 163.36 96.0285 163.36ZM116.071 146.368C115.575 146.912 115.015 147.52 114.391 148.192C113.767 148.848 113.111 149.528 112.423 150.232C111.751 150.92 111.079 151.6 110.407 152.272C109.735 152.944 109.103 153.568 108.511 154.144C109.199 154.624 109.927 155.216 110.695 155.92C111.463 156.624 112.215 157.376 112.951 158.176C113.687 158.976 114.375 159.792 115.015 160.624C115.671 161.456 116.215 162.248 116.647 163H113.911C113.431 162.248 112.879 161.496 112.255 160.744C111.631 159.976 110.967 159.248 110.263 158.56C109.575 157.856 108.871 157.208 108.151 156.616C107.447 156.024 106.759 155.52 106.087 155.104V163H103.759V146.368H106.087V153.712C106.647 153.184 107.263 152.592 107.935 151.936C108.607 151.264 109.271 150.592 109.927 149.92C110.583 149.248 111.199 148.608 111.775 148C112.367 147.376 112.863 146.832 113.263 146.368H116.071ZM118.853 163V146.368H129.005V148.36H121.181V153.304H128.141V155.248H121.181V161.008H129.605V163H118.853ZM140.7 156.04C140.956 156.36 141.276 156.784 141.66 157.312C142.06 157.824 142.468 158.4 142.884 159.04C143.3 159.664 143.708 160.32 144.108 161.008C144.524 161.696 144.876 162.36 145.164 163H142.62C142.3 162.392 141.948 161.776 141.564 161.152C141.196 160.528 140.82 159.936 140.436 159.376C140.052 158.8 139.668 158.264 139.284 157.768C138.916 157.272 138.58 156.84 138.276 156.472C138.068 156.488 137.852 156.496 137.628 156.496C137.42 156.496 137.204 156.496 136.98 156.496H134.892V163H132.564V146.608C133.22 146.448 133.948 146.344 134.748 146.296C135.564 146.232 136.308 146.2 136.98 146.2C139.316 146.2 141.092 146.64 142.308 147.52C143.54 148.4 144.156 149.712 144.156 151.456C144.156 152.56 143.86 153.504 143.268 154.288C142.692 155.072 141.836 155.656 140.7 156.04ZM137.172 148.24C136.18 148.24 135.42 148.264 134.892 148.312V154.576H136.548C137.348 154.576 138.068 154.536 138.708 154.456C139.348 154.376 139.884 154.224 140.316 154C140.764 153.776 141.108 153.464 141.348 153.064C141.588 152.648 141.708 152.104 141.708 151.432C141.708 150.808 141.588 150.288 141.348 149.872C141.108 149.456 140.78 149.128 140.364 148.888C139.964 148.648 139.484 148.48 138.924 148.384C138.38 148.288 137.796 148.24 137.172 148.24Z" fill="#8D1C1A"/>
<path d="M57.552 135.144C57.216 135.144 56.848 135.136 56.448 135.12C56.064 135.104 55.672 135.08 55.272 135.048C54.888 135.016 54.504 134.976 54.12 134.928C53.736 134.88 53.384 134.816 53.064 134.736V118.608C53.384 118.528 53.736 118.464 54.12 118.416C54.504 118.368 54.888 118.328 55.272 118.296C55.672 118.264 56.064 118.24 56.448 118.224C56.832 118.208 57.192 118.2 57.528 118.2C58.488 118.2 59.384 118.272 60.216 118.416C61.064 118.56 61.792 118.808 62.4 119.16C63.024 119.496 63.512 119.944 63.864 120.504C64.216 121.064 64.392 121.752 64.392 122.568C64.392 123.48 64.176 124.232 63.744 124.824C63.312 125.4 62.736 125.832 62.016 126.12C62.992 126.408 63.768 126.864 64.344 127.488C64.92 128.112 65.208 128.992 65.208 130.128C65.208 131.792 64.592 133.048 63.36 133.896C62.144 134.728 60.208 135.144 57.552 135.144ZM55.368 127.248V133.104C55.544 133.12 55.752 133.136 55.992 133.152C56.2 133.168 56.44 133.184 56.712 133.2C57 133.2 57.328 133.2 57.696 133.2C58.384 133.2 59.032 133.16 59.64 133.08C60.264 132.984 60.808 132.824 61.272 132.6C61.736 132.376 62.104 132.064 62.376 131.664C62.664 131.264 62.808 130.76 62.808 130.152C62.808 129.608 62.704 129.152 62.496 128.784C62.288 128.4 61.984 128.096 61.584 127.872C61.2 127.648 60.736 127.488 60.192 127.392C59.648 127.296 59.04 127.248 58.368 127.248H55.368ZM55.368 125.376H57.816C58.392 125.376 58.936 125.336 59.448 125.256C59.96 125.176 60.4 125.032 60.768 124.824C61.152 124.616 61.448 124.344 61.656 124.008C61.88 123.672 61.992 123.248 61.992 122.736C61.992 122.256 61.88 121.856 61.656 121.536C61.432 121.2 61.12 120.936 60.72 120.744C60.336 120.536 59.88 120.384 59.352 120.288C58.824 120.192 58.264 120.144 57.672 120.144C57.08 120.144 56.616 120.152 56.28 120.168C55.944 120.184 55.64 120.208 55.368 120.24V125.376ZM79.5979 135C79.3259 134.28 79.0699 133.576 78.8299 132.888C78.5899 132.184 78.3419 131.472 78.0859 130.752H70.5499L69.0379 135H66.6139C67.2539 133.24 67.8539 131.616 68.4139 130.128C68.9739 128.624 69.5179 127.2 70.0459 125.856C70.5899 124.512 71.1259 123.232 71.6539 122.016C72.1819 120.784 72.7339 119.568 73.3099 118.368H75.4459C76.0219 119.568 76.5739 120.784 77.1019 122.016C77.6299 123.232 78.1579 124.512 78.6859 125.856C79.2299 127.2 79.7819 128.624 80.3419 130.128C80.9019 131.616 81.5019 133.24 82.1419 135H79.5979ZM77.4139 128.832C76.9019 127.44 76.3899 126.096 75.8779 124.8C75.3819 123.488 74.8619 122.232 74.3179 121.032C73.7579 122.232 73.2219 123.488 72.7099 124.8C72.2139 126.096 71.7179 127.44 71.2219 128.832H77.4139ZM88.8879 135.144C88.5519 135.144 88.1839 135.136 87.7839 135.12C87.3999 135.104 87.0079 135.08 86.6079 135.048C86.2239 135.016 85.8399 134.976 85.4559 134.928C85.0719 134.88 84.7199 134.816 84.3999 134.736V118.608C84.7199 118.528 85.0719 118.464 85.4559 118.416C85.8399 118.368 86.2239 118.328 86.6079 118.296C87.0079 118.264 87.3999 118.24 87.7839 118.224C88.1679 118.208 88.5279 118.2 88.8639 118.2C89.8239 118.2 90.7199 118.272 91.5519 118.416C92.3999 118.56 93.1279 118.808 93.7359 119.16C94.3599 119.496 94.8479 119.944 95.1999 120.504C95.5519 121.064 95.7279 121.752 95.7279 122.568C95.7279 123.48 95.5119 124.232 95.0799 124.824C94.6479 125.4 94.0719 125.832 93.3519 126.12C94.3279 126.408 95.1039 126.864 95.6799 127.488C96.2559 128.112 96.5439 128.992 96.5439 130.128C96.5439 131.792 95.9279 133.048 94.6959 133.896C93.4799 134.728 91.5439 135.144 88.8879 135.144ZM86.7039 127.248V133.104C86.8799 133.12 87.0879 133.136 87.3279 133.152C87.5359 133.168 87.7759 133.184 88.0479 133.2C88.3359 133.2 88.6639 133.2 89.0319 133.2C89.7199 133.2 90.3679 133.16 90.9759 133.08C91.5999 132.984 92.1439 132.824 92.6079 132.6C93.0719 132.376 93.4399 132.064 93.7119 131.664C93.9999 131.264 94.1439 130.76 94.1439 130.152C94.1439 129.608 94.0399 129.152 93.8319 128.784C93.6239 128.4 93.3199 128.096 92.9199 127.872C92.5359 127.648 92.0719 127.488 91.5279 127.392C90.9839 127.296 90.3759 127.248 89.7039 127.248H86.7039ZM86.7039 125.376H89.1519C89.7279 125.376 90.2719 125.336 90.7839 125.256C91.2959 125.176 91.7359 125.032 92.1039 124.824C92.4879 124.616 92.7839 124.344 92.9919 124.008C93.2159 123.672 93.3279 123.248 93.3279 122.736C93.3279 122.256 93.2159 121.856 92.9919 121.536C92.7679 121.2 92.4559 120.936 92.0559 120.744C91.6719 120.536 91.2159 120.384 90.6879 120.288C90.1599 120.192 89.5999 120.144 89.0079 120.144C88.4159 120.144 87.9519 120.152 87.6159 120.168C87.2799 120.184 86.9759 120.208 86.7039 120.24V125.376ZM103.172 135V128.328C102.068 126.616 101.028 124.928 100.052 123.264C99.0764 121.6 98.1564 119.968 97.2924 118.368H100.028C100.636 119.68 101.316 121.016 102.068 122.376C102.82 123.72 103.596 125.016 104.396 126.264C105.18 125.016 105.948 123.72 106.7 122.376C107.452 121.016 108.14 119.68 108.764 118.368H111.356C110.492 119.968 109.572 121.6 108.596 123.264C107.62 124.912 106.588 126.584 105.5 128.28V135H103.172Z" fill="#8D1C1A"/>
<ellipse cx="67.5" cy="100.5" rx="7.5" ry="5.5" fill="#8D1C1A"/>
<ellipse cx="101.5" cy="100.5" rx="7.5" ry="5.5" fill="#8D1C1A"/>
<ellipse cx="101.5" cy="102.5" rx="7.5" ry="5.5" fill="white"/>
<ellipse cx="67.5" cy="102.5" rx="7.5" ry="5.5" fill="white"/>
</svg>
