<svg width="22" height="28" viewBox="0 0 22 28" fill="none" xmlns="http://www.w3.org/2000/svg">
<path fill-rule="evenodd" clip-rule="evenodd" d="M18.1179 12.1692C19.9713 13.7156 21.1506 16.0427 21.1506 18.6452C21.1506 23.301 17.3763 27.0753 12.7205 27.0753H9.27959C4.62377 27.0753 0.849487 23.301 0.849487 18.6452C0.849487 15.6733 2.38732 13.0606 4.71062 11.5594C4.17309 10.9651 3.65715 10.4226 3.43013 10.5144V8.32329C3.43013 4.14201 6.81875 0.752686 11 0.752686C15.1802 0.752686 18.5699 4.14381 18.5699 8.32329V10.5142C18.4079 10.4487 18.2617 11.1775 18.1179 12.1692ZM7.11087 10.4966L7.21508 10.2151V8.32329C7.21508 6.2322 8.90929 4.53763 11 4.53763C13.0894 4.53763 14.785 6.23384 14.785 8.32329V10.2151L14.8845 10.4954C14.1939 10.3125 13.4686 10.2151 12.7205 10.2151H9.2796C8.5298 10.2151 7.80286 10.3129 7.11087 10.4966ZM9.77105 18.1953C9.36303 17.8182 9.10755 17.2784 9.10755 16.679C9.10755 15.5388 10.0319 14.6144 11.1721 14.6144C12.3123 14.6144 13.2366 15.5388 13.2366 16.679C13.2366 17.3218 12.9428 17.896 12.4822 18.2746L12.8431 21.9877H9.40248L9.77105 18.1953Z" fill="#7E848C"/>
</svg>
