<svg width="80" height="80" viewBox="0 0 80 80" fill="none" xmlns="http://www.w3.org/2000/svg">
<path d="M27 31.4716C27 26.6391 31.014 22.7216 35.9655 22.7216H44.0345C48.986 22.7216 53 26.6391 53 31.4716V66.2501C53 71.0826 48.986 75.0001 44.0345 75.0001H35.9655C31.014 75.0001 27 71.0826 27 66.2501V31.4716Z" fill="#548999"/>
<path fill-rule="evenodd" clip-rule="evenodd" d="M44.0345 24.9091H35.9655C32.2519 24.9091 29.2414 27.8472 29.2414 31.4716V66.2501C29.2414 69.8745 32.2519 72.8126 35.9655 72.8126H44.0345C47.7481 72.8126 50.7586 69.8745 50.7586 66.2501V31.4716C50.7586 27.8472 47.7481 24.9091 44.0345 24.9091ZM35.9655 22.7216C31.014 22.7216 27 26.6391 27 31.4716V66.2501C27 71.0826 31.014 75.0001 35.9655 75.0001H44.0345C48.986 75.0001 53 71.0826 53 66.2501V31.4716C53 26.6391 48.986 22.7216 44.0345 22.7216H35.9655Z" fill="black"/>
<path d="M31.0344 33.3544C31.0344 32.6203 31.6441 32.0253 32.3963 32.0253H38.6381C39.3902 32.0253 39.9999 32.6203 39.9999 33.3544C39.9999 34.0884 39.3902 34.6835 38.6381 34.6835H32.3963C31.6441 34.6835 31.0344 34.0884 31.0344 33.3544Z" fill="black"/>
<path d="M31.0344 39.557C31.0344 38.823 31.6441 38.2279 32.3963 38.2279H38.6381C39.3902 38.2279 39.9999 38.823 39.9999 39.557C39.9999 40.2911 39.3902 40.8861 38.6381 40.8861H32.3963C31.6441 40.8861 31.0344 40.2911 31.0344 39.557Z" fill="black"/>
<path d="M31.0344 45.7594C31.0344 45.0254 31.6441 44.4303 32.3963 44.4303H38.6381C39.3902 44.4303 39.9999 45.0254 39.9999 45.7594C39.9999 46.4935 39.3902 47.0885 38.6381 47.0885H32.3963C31.6441 47.0885 31.0344 46.4935 31.0344 45.7594Z" fill="black"/>
<path d="M31.0344 51.9621C31.0344 51.228 31.6441 50.6329 32.3963 50.6329H38.6381C39.3902 50.6329 39.9999 51.228 39.9999 51.9621C39.9999 52.6961 39.3902 53.2912 38.6381 53.2912H32.3963C31.6441 53.2912 31.0344 52.6961 31.0344 51.9621Z" fill="black"/>
<path d="M31.0344 58.1647C31.0344 57.4306 31.6441 56.8356 32.3963 56.8356H38.6381C39.3902 56.8356 39.9999 57.4306 39.9999 58.1647C39.9999 58.8987 39.3902 59.4938 38.6381 59.4938H32.3963C31.6441 59.4938 31.0344 58.8987 31.0344 58.1647Z" fill="black"/>
<path d="M31.0344 64.367C31.0344 63.6329 31.6441 63.0378 32.3963 63.0378H38.6381C39.3902 63.0378 39.9999 63.6329 39.9999 64.367C39.9999 65.101 39.3902 65.6961 38.6381 65.6961H32.3963C31.6441 65.6961 31.0344 65.101 31.0344 64.367Z" fill="black"/>
<path fill-rule="evenodd" clip-rule="evenodd" d="M44.9064 10.7394L47.635 13.585C50.3152 16.3801 48.2844 20.9494 44.3619 20.9494H36.0863C32.1637 20.9494 30.133 16.3801 32.8132 13.585L35.788 10.4826C35.7082 7.73008 37.4989 5 40.3281 5C43.2376 5 45.0986 7.90684 44.9064 10.7394Z" fill="white"/>
<path fill-rule="evenodd" clip-rule="evenodd" d="M42.6057 11.5414L42.6699 10.5948C42.733 9.66534 42.4499 8.74164 41.9673 8.09361C41.5052 7.47307 40.941 7.1875 40.3281 7.1875C39.7284 7.1875 39.1974 7.45459 38.7583 8.02422C38.2955 8.6246 38.0018 9.50082 38.0285 10.4208L38.0546 11.3203L37.4245 11.9774L34.4497 15.0797C33.1096 16.4772 34.125 18.7619 36.0863 18.7619H44.3619C46.3232 18.7619 47.3386 16.4772 45.9985 15.0797L43.2699 12.2341L42.6057 11.5414ZM35.788 10.4826L32.8132 13.585C30.133 16.3801 32.1637 20.9494 36.0863 20.9494H44.3619C48.2844 20.9494 50.3152 16.3801 47.635 13.585L44.9064 10.7394C45.0986 7.90684 43.2376 5 40.3281 5C37.4989 5 35.7082 7.73008 35.788 10.4826Z" fill="black"/>
</svg>
