<svg width="72" height="45" viewBox="0 0 72 45" fill="none" xmlns="http://www.w3.org/2000/svg">
<rect x="1.38128" y="6.90591" width="69.0333" height="8.28713" rx="4.14357" fill="white" stroke="black" stroke-width="2.76238"/>
<path d="M31.7553 11.0495C31.7553 16.3897 27.428 20.7178 22.091 20.7178C16.7541 20.7178 12.4268 16.3897 12.4268 11.0495C12.4268 5.70937 16.7541 1.38119 22.091 1.38119C27.428 1.38119 31.7553 5.70937 31.7553 11.0495Z" fill="#BFE2FE" stroke="black" stroke-width="2.76238"/>
<rect x="70.4145" y="37.292" width="69.0333" height="8.28713" rx="4.14357" transform="rotate(180 70.4145 37.292)" fill="white" stroke="black" stroke-width="2.76238"/>
<path d="M40.0406 33.1485C40.0406 27.8083 44.3679 23.4802 49.7049 23.4802C55.0419 23.4802 59.3692 27.8083 59.3692 33.1485C59.3692 38.4886 55.0419 42.8168 49.7049 42.8168C44.3679 42.8168 40.0406 38.4886 40.0406 33.1485Z" fill="#F1D3A1" stroke="black" stroke-width="2.76238"/>
</svg>
